<svg width="86" height="86" viewBox="0 0 86 86" fill="none" xmlns="http://www.w3.org/2000/svg">
<circle cx="43" cy="43" r="41.5" fill="#ECF3ED" stroke="#2E8942" stroke-width="3" stroke-dasharray="6 6"/>
<path d="M50.5693 32.3473C50.917 32.4171 51.282 32.4331 51.5988 32.5647C52.2521 32.8358 52.4522 33.4455 52.5758 34.0781C52.9373 35.9382 52.228 37.4952 50.4171 38.6506C50.6688 38.6506 50.8095 38.6506 50.9502 38.6506C53.2908 38.6506 55.6313 38.6494 57.9719 38.6506C59.4316 38.6506 60.2472 39.4662 60.2507 40.934C60.2553 42.7471 60.2564 44.5603 60.2507 46.3735C60.2461 47.8069 59.4224 48.6271 57.9891 48.6351C57.2077 48.6397 56.4252 48.6351 55.5753 48.6351C55.9436 49.0607 56.288 49.4096 56.5728 49.802C56.8645 50.2024 57.0979 50.6451 57.3827 51.1096C57.9353 50.9059 58.5061 50.6931 59.0781 50.4849C59.8697 50.1967 60.2495 50.4609 60.253 51.3075C60.2564 52.3199 60.253 53.3323 60.253 54.4122C60.6499 54.4122 61.0149 54.4202 61.3798 54.4099C61.8225 54.3985 62.0616 54.6192 62.1691 55.0356C62.5992 56.7013 62.5981 58.3646 62.1691 60.0302C62.0616 60.4478 61.8088 60.664 61.3775 60.6651C61.0229 60.6663 60.6694 60.6651 60.253 60.6651C60.253 61.165 60.2564 61.6306 60.253 62.0951C60.2461 62.7803 60.0322 62.9988 59.3595 62.9988C48.6268 62.9988 37.8952 62.9988 27.1625 62.9988C26.5048 62.9988 26.2874 62.7826 26.284 62.1328C26.2817 61.6638 26.284 61.1948 26.284 60.6651C25.9168 60.6651 25.5804 60.6663 25.2441 60.6651C24.6458 60.6617 24.4582 60.5118 24.3118 59.9444C23.8896 58.3211 23.8999 56.699 24.3198 55.078C24.4525 54.5643 24.6332 54.4179 25.1583 54.4122C25.5129 54.4088 25.8676 54.4122 26.2851 54.4122C26.2851 53.9168 26.2851 53.4513 26.2851 52.9857C26.2851 52.3862 26.2817 51.7868 26.2863 51.1862C26.292 50.4895 26.6935 50.2161 27.3616 50.4563C27.9507 50.668 28.5353 50.8899 29.065 51.0855C29.6587 50.2539 30.2307 49.4542 30.8175 48.6329C30.0408 48.6329 29.232 48.6283 28.4243 48.634C27.8272 48.6386 27.2998 48.4704 26.8674 48.0471C26.435 47.6239 26.2451 47.0999 26.2439 46.5039C26.2416 44.5912 26.2291 42.6774 26.2485 40.7646C26.2611 39.4708 27.1236 38.6506 28.4312 38.6483C30.9559 38.6437 33.4818 38.6472 36.0843 38.6472C35.9837 38.5636 35.9414 38.5133 35.8876 38.487C34.1945 37.6599 33.396 35.3102 34.1556 33.4055C34.4496 32.6665 35.0342 32.3519 35.8075 32.4011C35.6805 31.6484 35.5204 30.9151 35.4426 30.1738C35.3396 29.198 35.4643 28.2622 36.1827 27.4992C36.2456 27.4328 36.28 27.3242 36.296 27.2292C36.6437 25.2536 37.8998 24.0799 39.7267 23.5102C41.9792 22.8078 44.2774 22.8375 46.5105 23.5571C48.9448 24.3407 50.1586 26.2214 50.6059 28.6443C50.7191 29.2563 50.7214 29.8947 50.7146 30.5204C50.7077 31.1313 50.623 31.741 50.5739 32.345L50.5693 32.3473ZM37.7648 35.9726C37.7317 35.976 37.6985 35.9794 37.6665 35.9829C37.7763 37.0124 37.7568 38.0775 38.0234 39.0659C38.545 41.0014 39.9807 42.2289 41.6578 43.1864C42.0215 43.3935 42.4368 43.5422 42.8463 43.6291C43.7123 43.811 44.4708 43.4724 45.1846 43.0205C47.476 41.5677 48.9563 39.6573 48.763 36.7699C48.7103 35.9748 48.7744 35.1718 48.7446 34.3733C48.7332 34.0724 48.6691 33.7441 48.5273 33.4844C48.1532 32.7958 47.8421 32.114 47.9942 31.2983C48.0297 31.1084 47.969 30.9013 47.9656 30.7012C47.9462 29.1236 46.3755 28.1558 45.0885 28.5379C44.6389 28.6718 44.1802 28.7827 43.7455 28.9543C43.4012 29.0904 43.1037 29.079 42.7605 28.9475C42.2835 28.7656 41.7893 28.6146 41.2894 28.5127C40.0059 28.2508 38.8253 29.0493 38.6182 30.3397C38.5313 30.8842 38.5736 31.447 38.5359 32.0007C38.521 32.2215 38.5073 32.4766 38.3929 32.6516C37.8369 33.5016 37.6584 34.4236 37.7603 35.4177C37.7786 35.6008 37.7625 35.7884 37.7625 35.9737L37.7648 35.9726ZM58.8802 52.043C58.6697 52.1117 58.5347 52.1506 58.4032 52.1998C56.6815 52.8392 54.9633 53.4879 53.2347 54.1113C52.9339 54.22 52.8572 54.3744 52.8641 54.6719C52.8824 55.4418 52.887 56.2139 52.8595 56.9827C52.8515 57.2058 52.7771 57.502 52.6227 57.6244C52.4568 57.756 52.0976 57.8281 51.9352 57.7331C51.7315 57.6153 51.5371 57.3076 51.5211 57.0696C51.4696 56.2734 51.4879 55.4726 51.5062 54.673C51.5131 54.3836 51.4307 54.2486 51.1413 54.1617C49.3818 53.6366 47.6281 53.0886 45.8721 52.5498C45.2498 52.3588 44.6264 52.1746 43.9697 51.9767V61.6089H58.8825C58.8825 61.4362 58.863 61.2794 58.8859 61.1296C58.9443 60.7429 58.8001 60.569 58.4123 60.4409C57.5418 60.1538 56.9412 59.5337 56.6014 58.6803C55.9333 57.0021 56.797 55.1695 58.521 54.5609C58.656 54.5129 58.8585 54.379 58.863 54.2783C58.8928 53.5542 58.8791 52.8289 58.8791 52.0407L58.8802 52.043ZM33.6214 61.6112C33.6214 61.4384 33.6214 61.2851 33.6214 61.1319C33.6214 60.2899 33.618 59.4468 33.6225 58.6048C33.626 58.0431 33.8582 57.7503 34.2895 57.7423C34.7368 57.7343 34.9861 58.0409 34.9896 58.6208C34.9941 59.321 34.9907 60.0199 34.9907 60.72C34.9907 61.014 34.9907 61.3069 34.9907 61.6089H42.5386V51.9984C42.3933 52.0373 42.2835 52.0625 42.1771 52.0957C39.7107 52.8495 37.2489 53.6137 34.7756 54.3447C34.4748 54.4339 34.0893 54.4259 33.7941 54.3195C31.8906 53.6343 30.003 52.909 28.1086 52.1998C27.9702 52.1483 27.8272 52.1094 27.6796 52.0613V54.363C28.2104 54.6913 28.7229 54.911 29.1119 55.2656C30.845 56.8477 30.2272 59.6939 28.0091 60.4947C27.8741 60.5439 27.6899 60.6628 27.6682 60.7761C27.6178 61.0461 27.6522 61.3309 27.6522 61.6135H33.6202L33.6214 61.6112ZM54.2666 40.0222C52.7645 40.0222 51.2991 40.0176 49.8326 40.0336C49.7365 40.0336 49.6164 40.1789 49.5511 40.2842C49.2972 40.696 49.1416 41.2051 48.803 41.5197C48.0079 42.2575 47.8993 43.1372 47.953 44.1394C48.0125 45.2513 48.3385 45.7295 49.4516 46.0258C49.7216 45.6059 50.0911 45.3462 50.623 45.4549C51.2225 45.5773 51.8208 45.7112 52.4168 45.8519C53.0277 45.996 53.4727 46.3621 53.6866 46.9512C53.8044 47.2761 53.968 47.331 54.2654 47.2029V40.0222H54.2666ZM32.2681 40.0211V47.2235C32.5335 47.2898 32.7039 47.2944 32.8115 46.9855C33.0288 46.3609 33.4921 45.9811 34.1407 45.8381C34.683 45.718 35.2287 45.6105 35.7686 45.4778C36.2136 45.368 36.5785 45.4652 36.8966 45.7992C36.9663 45.8725 37.1174 45.9308 37.2112 45.9102C37.9982 45.734 38.5233 45.09 38.5404 44.2869C38.5519 43.7733 38.5553 43.2585 38.537 42.746C38.5324 42.6064 38.4569 42.4543 38.3769 42.3342C37.9147 41.6363 37.4457 40.9442 36.9675 40.2579C36.8977 40.1583 36.7707 40.0336 36.6689 40.0325C35.2161 40.0176 33.7632 40.0222 32.2692 40.0222L32.2681 40.0211ZM49.5157 52.2364C49.5157 52.0201 49.5191 51.8806 49.5157 51.7399C49.4837 50.4552 49.4516 49.1717 49.4162 47.887C49.4116 47.6994 49.4699 47.498 49.1954 47.4019C48.9586 47.3196 48.8362 47.4168 48.6806 47.561C47.1225 48.9978 45.283 49.7345 43.1621 49.7082C41.0743 49.683 39.2783 48.9166 37.75 47.4958C37.6424 47.3951 37.4182 47.3356 37.2844 47.3756C37.1871 47.4054 37.1002 47.6307 37.0945 47.7715C37.0487 49.0985 37.0213 50.4255 36.9904 51.7525C36.9869 51.8989 36.9904 52.0453 36.9904 52.2295C37.1826 52.178 37.3061 52.1506 37.4262 52.1128C38.7875 51.6941 40.1706 51.3338 41.5033 50.8373C42.6828 50.398 43.805 50.2882 44.9615 50.835C45.1652 50.9311 45.394 50.9768 45.6125 51.0432C46.8903 51.4344 48.1681 51.8245 49.5168 52.2364H49.5157ZM37.1723 31.6609C37.1723 31.3624 37.1665 31.0626 37.1723 30.7641C37.2317 28.1249 39.6204 26.6664 41.739 27.1903C42.1256 27.2864 42.5009 27.4305 42.891 27.5083C43.1255 27.5552 43.3863 27.5587 43.6197 27.5106C44.1207 27.4077 44.6058 27.2258 45.1091 27.1354C46.8331 26.8277 48.5696 27.8618 49.145 29.5149C49.1896 29.6418 49.2285 29.77 49.3006 29.9896C49.4642 27.5003 47.9187 25.2833 45.6788 24.7159C44.3793 24.3864 43.0465 24.3201 41.7275 24.502C40.9348 24.6107 40.1306 24.8257 39.3973 25.1438C38.3826 25.5842 37.758 26.4158 37.6321 27.5449C37.5898 27.9247 37.4514 28.1959 37.1837 28.4693C36.9915 28.666 36.8737 28.9841 36.8256 29.2655C36.6826 30.0834 36.8737 30.875 37.1711 31.6609H37.1723ZM46.6123 43.7001C44.3358 45.4755 42.1348 45.4595 39.8938 43.6875C40.0093 44.9207 39.6638 45.8633 38.847 46.608C41.0412 48.8777 45.4432 48.896 47.6155 46.6561C46.761 45.9102 46.5196 44.9287 46.6111 43.7001H46.6123ZM25.5598 55.793C25.3024 56.9735 25.2979 58.1118 25.5747 59.3255C26.2199 59.2912 26.8663 59.3221 27.4851 59.2066C28.3077 59.0521 28.8373 58.2285 28.7698 57.3785C28.7058 56.5651 28.0308 55.8524 27.2255 55.801C26.6866 55.7655 26.1444 55.7941 25.5598 55.7941V55.793ZM60.9325 55.7861C60.4291 55.7861 59.9475 55.7758 59.4659 55.7884C58.6159 55.8113 57.8987 56.4622 57.8026 57.2835C57.6951 58.201 58.2304 59.0544 59.1067 59.2134C59.6981 59.321 60.3147 59.2901 60.9188 59.321C61.1876 58.1141 61.1842 56.985 60.9313 55.7861H60.9325ZM52.2223 53.0612C52.2681 52.9822 52.3058 52.9479 52.307 52.9113C52.3596 51.1587 52.4202 49.4073 52.442 47.6548C52.4442 47.4923 52.2269 47.2418 52.0576 47.1812C51.6606 47.0405 51.2328 46.9913 50.7649 46.894C50.8164 48.7781 50.8656 50.6279 50.9228 52.4766C50.925 52.5555 50.9948 52.6791 51.0612 52.702C51.4456 52.8347 51.8379 52.9445 52.2223 53.06V53.0612ZM35.7206 46.8963C35.3259 46.981 34.9713 47.0782 34.6109 47.1297C34.1831 47.1903 34.0469 47.4168 34.0607 47.8332C34.1144 49.4439 34.1442 51.0546 34.1865 52.6665C34.1899 52.7878 34.2151 52.909 34.2357 53.0806C34.5892 52.9765 34.8958 52.8701 35.2092 52.8003C35.5055 52.734 35.6153 52.5944 35.6188 52.2764C35.6371 50.7217 35.684 49.1682 35.7194 47.6136C35.724 47.3882 35.7194 47.1629 35.7194 46.8975L35.7206 46.8963ZM28.5891 47.2349V40.052C27.8775 39.9845 27.6121 40.211 27.611 40.8973C27.6053 42.7346 27.6053 44.5718 27.611 46.4101C27.6133 47.0668 27.8764 47.2876 28.5891 47.2349ZM57.9067 47.2315C58.6034 47.2933 58.8768 47.0679 58.8791 46.4113C58.8859 44.5569 58.8871 42.7025 58.8791 40.8482C58.8756 40.2052 58.5736 39.9696 57.9078 40.0657V47.2315H57.9067ZM30.011 40.0371V47.2349H30.8335V40.0371H30.011ZM55.6748 40.0371V47.2372H56.4905V40.0371H55.6748ZM30.4686 51.6129C31.2316 51.9 31.9924 52.186 32.7291 52.464V49.1374C31.783 49.5824 30.9353 50.5158 30.4686 51.6129ZM56.0569 51.6083C55.5432 50.5318 54.842 49.7265 53.7541 49.1271V52.4651C54.5114 52.1837 55.2527 51.908 56.0569 51.6083ZM50.13 37.2332C50.337 37.0548 50.4629 36.9678 50.5624 36.8557C51.2476 36.0824 51.441 35.1821 51.1882 34.1925C51.1481 34.037 50.9399 33.7876 50.8587 33.8047C50.5624 33.8699 50.1506 33.8974 50.138 34.3218C50.1117 35.245 50.13 36.1693 50.13 37.2321V37.2332ZM36.3555 37.1406C36.3749 37.0834 36.3909 37.0582 36.3909 37.033C36.3932 36.2197 36.3944 35.4063 36.3944 34.5929C36.3944 34.0907 36.2617 33.9031 35.772 33.8105C35.6622 33.7899 35.4506 33.8814 35.4128 33.9729C34.945 35.1192 35.4323 36.6486 36.3543 37.1406H36.3555Z" fill="#EC1E24"/>
<path d="M57.8438 26.1367C60.5928 26.147 62.5089 28.6603 61.8775 31.4528C61.4302 33.4295 60.2828 34.9979 58.8608 36.3764C58.2694 36.9495 57.3039 36.945 56.7147 36.3627C55.2344 34.8995 54.0333 33.2568 53.6558 31.1382C53.1913 28.5322 55.2047 26.1276 57.8438 26.1367ZM54.9542 30.374C54.9771 30.5856 54.9851 30.8007 55.0251 31.0101C55.3534 32.7237 56.3727 34.0313 57.527 35.2587C57.7111 35.4555 57.9033 35.4361 58.0795 35.2439C58.3106 34.9911 58.5474 34.744 58.7647 34.4797C59.641 33.4101 60.3743 32.2661 60.5962 30.8625C60.8582 29.2072 59.7119 27.6594 58.1161 27.5232C56.3944 27.3768 54.9725 28.6638 54.9542 30.374Z" fill="#EC1E24"/>
<path d="M52.1662 58.6337C52.5346 58.6211 52.848 58.9208 52.8606 59.2972C52.8732 59.6793 52.5883 59.9859 52.2097 59.9973C51.8345 60.0087 51.521 59.7159 51.5084 59.3407C51.4959 58.9723 51.799 58.6463 52.1662 58.6337Z" fill="#EC1E24"/>
<path d="M34.2803 55.5472C34.6475 55.5357 34.9666 55.8378 34.9804 56.2107C34.9929 56.5848 34.6978 56.8994 34.3237 56.9108C33.9451 56.9211 33.6385 56.6317 33.6282 56.253C33.6179 55.8744 33.9096 55.5598 34.2803 55.5472Z" fill="#EC1E24"/>
<path d="M57.7808 32.5978C56.5431 32.5944 55.5615 31.6083 55.5581 30.3625C55.5547 29.1018 56.5488 28.11 57.8117 28.1157C59.0484 28.1215 60.039 29.1156 60.039 30.3499C60.039 31.6094 59.0438 32.6001 57.782 32.5967L57.7808 32.5978ZM57.7957 29.4851C57.3061 29.4851 56.932 29.8557 56.9286 30.3442C56.9252 30.8567 57.3061 31.2331 57.8186 31.2239C58.3059 31.2148 58.672 30.8361 58.6663 30.3453C58.6606 29.8592 58.2819 29.4851 57.7957 29.4851Z" fill="#EC1E24"/>
</svg>
