<svg width="80" height="80" viewBox="0 0 80 80" fill="none" xmlns="http://www.w3.org/2000/svg">
<rect width="80" height="80" rx="4" transform="matrix(-1 0 0 1 80 0)" fill="#E8F4FD"/>
<path d="M48.6119 25.9252C48.6935 25.8143 48.7803 25.7023 48.8609 25.5872C49.7827 24.273 50.7024 22.9578 51.6274 21.6457C52.2332 20.7846 53.0954 20.7846 53.7012 21.6468C55.2236 23.8147 56.7397 25.9869 58.2653 28.1528C58.5551 28.5651 58.7037 28.9846 58.4578 29.4649C58.2067 29.9567 57.7766 30.1074 57.2514 30.0948C56.6926 30.0812 56.1339 30.0917 55.5323 30.0917V30.5939C55.5323 34.639 55.5323 38.6841 55.5323 42.7292C55.5323 43.7452 55.1294 44.1428 54.104 44.1438C53.11 44.1438 52.1171 44.148 51.123 44.1428C50.2243 44.1375 49.7974 43.7085 49.7953 42.8244C49.7953 42.5272 49.7953 42.2311 49.7953 41.8555C47.1083 43.944 44.1587 44.6272 40.913 43.7933C38.6833 43.2199 36.8878 41.9654 35.516 40.1196C32.8511 36.5349 33.0007 31.5544 35.8603 28.0702C38.6655 24.6518 43.9547 23.1859 48.6119 25.9262V25.9252ZM37.3063 34.3282C37.3126 37.5446 39.7338 40.1542 42.9659 40.4304C45.4614 40.6428 47.7926 39.359 48.9477 37.1345C50.0966 34.9225 49.7869 32.2188 48.1567 30.3281C48.051 30.2057 47.87 30.1199 47.7078 30.0781C47.3134 29.9766 47.0455 29.7558 46.8467 29.4011C46.7358 29.2023 46.5663 28.9962 46.3706 28.8915C42.2617 26.688 37.2969 29.671 37.3063 34.3293V34.3282ZM52.0658 42.8568C52.0658 42.6654 52.0658 42.522 52.0658 42.3797C52.0658 39.6383 52.0658 36.897 52.0658 34.1566C52.0658 34.0258 52.0585 33.894 52.0731 33.7653C52.1097 33.4378 52.297 33.238 52.6256 33.2055C52.9541 33.1731 53.1854 33.33 53.2774 33.646C53.3203 33.7925 53.3193 33.9547 53.3193 34.1096C53.3214 36.8635 53.3214 39.6185 53.3214 42.3724V42.8495H54.2903V42.3494C54.2903 38.4466 54.2903 34.5438 54.2903 30.641C54.2903 29.1039 54.5529 28.8413 56.0879 28.8413C56.4415 28.8413 56.7952 28.8413 57.221 28.8413C55.6735 26.6356 54.1867 24.5168 52.6779 22.3677C51.1576 24.5388 49.6739 26.6576 48.1431 28.8413C48.7165 28.8413 49.1853 28.8413 49.6551 28.8413C50.6616 28.8423 51.0645 29.2399 51.0645 30.2329C51.0645 34.2791 51.0645 38.3262 51.0645 42.3724V42.8589H52.0647L52.0658 42.8568ZM49.79 38.2321C47.2422 42.0888 42.471 42.6183 39.2839 40.4618C36.1899 38.3681 35.1456 34.2634 36.8397 30.9235C38.451 27.7479 42.879 25.5171 47.2454 27.8965C47.4515 27.6066 47.6587 27.3137 47.8878 26.9914C47.733 26.9025 47.6126 26.8292 47.4881 26.7633C45.791 25.8645 43.9829 25.5558 42.0953 25.8687C37.2645 26.6691 34.0794 31.1945 35.0619 35.994C35.7473 39.3412 37.8117 41.5971 41.117 42.5272C44.3491 43.4375 47.2119 42.6266 49.6069 40.2557C49.698 40.1646 49.7764 40.0161 49.7817 39.8905C49.8005 39.3715 49.79 38.8505 49.79 38.2321Z" fill="#178EEF"/>
<path d="M28.4115 57.118C28.3111 57.6317 28.2734 58.0565 28.1332 58.4437C28.0579 58.653 27.8371 58.8852 27.6299 58.9585C26.773 59.2598 25.9098 59.58 25.0214 59.7464C24.2294 59.8949 23.6717 59.4429 23.4383 58.6666C22.3156 54.9228 21.195 51.178 20.0796 47.4311C19.8128 46.5344 20.2293 45.7947 21.1364 45.5205C21.7234 45.3426 22.3135 45.1742 22.9016 45.0026C23.8904 44.7138 24.5767 45.0727 24.9147 46.0562C24.9315 46.1033 24.9513 46.1504 24.9817 46.2278C25.1522 46.186 25.3155 46.1525 25.4735 46.1054C27.7126 45.4389 29.958 44.7944 32.1856 44.0912C33.2048 43.77 34.1663 43.9385 35.152 44.1791C37.0416 44.6406 38.9365 45.0758 40.8272 45.5362C42.4386 45.9286 43.2286 46.9529 43.217 48.5999C43.217 48.6762 43.217 48.7537 43.217 48.874C43.9087 48.783 44.5762 48.6972 45.2427 48.6061C48.4393 48.1709 51.6368 47.7356 54.8334 47.2993C55.5197 47.2061 56.2051 47.1099 56.8904 47.0115C58.3166 46.8065 59.5973 47.6268 59.9185 48.9535C60.2512 50.3252 59.5418 51.585 58.1575 52.0674C57.4303 52.3206 56.699 52.5612 55.9697 52.8082C51.46 54.3379 46.9441 55.8519 42.4428 57.4068C40.4767 58.0858 38.5274 58.0262 36.5404 57.5438C35.1331 57.2017 33.708 56.9307 32.2882 56.6419C31.3622 56.4536 30.4435 56.4965 29.5384 56.7811C29.1293 56.9098 28.716 57.028 28.4115 57.119V57.118ZM27.8612 55.9628C28.0108 55.921 28.1227 55.8907 28.2337 55.8582C29.6661 55.4418 31.1226 55.2189 32.6083 55.4543C33.5741 55.6081 34.5252 55.853 35.4857 56.0424C36.6126 56.2652 37.7343 56.5321 38.8717 56.6733C40.2968 56.8512 41.6277 56.3709 42.9565 55.9179C47.847 54.25 52.7438 52.601 57.6386 50.9426C58.4672 50.6622 58.8921 49.9998 58.7163 49.2842C58.5321 48.5339 57.852 48.1531 56.9762 48.2786C55.5543 48.4827 54.1292 48.671 52.7051 48.8635C49.3653 49.3155 46.0243 49.7634 42.6855 50.2227C42.5307 50.2436 42.3695 50.3388 42.2429 50.4393C41.5346 51.0064 40.7268 51.2251 39.8531 51.0315C38.0691 50.636 36.2946 50.1965 34.5179 49.7696C34.0334 49.6535 33.8179 49.3553 33.9163 48.9744C34.0177 48.5831 34.3243 48.4314 34.8171 48.5475C36.5331 48.9493 38.2449 49.3658 39.964 49.7529C40.2465 49.8167 40.5698 49.8241 40.8492 49.7571C41.523 49.596 41.9604 48.9933 41.9573 48.3215C41.9552 47.6142 41.5032 47 40.8011 46.8295C38.7084 46.321 36.6084 45.8396 34.5158 45.3322C33.8849 45.1794 33.2717 45.0884 32.6272 45.284C30.3671 45.9704 28.1008 46.6359 25.8365 47.3108C25.667 47.361 25.5017 47.4238 25.327 47.4834C26.1734 50.3179 27.0095 53.1137 27.8601 55.9608L27.8612 55.9628ZM24.8111 58.5713C25.576 58.3411 26.253 58.1476 26.9195 57.9195C26.9843 57.8975 27.0293 57.6443 26.9938 57.525C25.9045 53.8409 24.8017 50.1599 23.7104 46.4769C23.6235 46.1828 23.4739 46.1494 23.2176 46.2289C22.707 46.389 22.1922 46.5344 21.6805 46.6872C21.2055 46.8284 21.1961 46.8452 21.3342 47.3076C21.9431 49.3407 22.5542 51.3747 23.1632 53.4077C23.6413 55.0044 24.1174 56.6022 24.6019 58.1978C24.6437 58.3349 24.7442 58.4542 24.8111 58.5713Z" fill="#178EEF"/>
<path d="M42.8948 38.3598C42.5013 38.2394 42.1351 38.1725 41.8097 38.0187C40.8471 37.5646 40.371 36.7673 40.3082 35.7199C40.2842 35.3181 40.4966 35.045 40.8241 35.0115C41.1652 34.9759 41.4278 35.2271 41.478 35.6383C41.5806 36.469 42.0274 36.964 42.8644 37.1471V34.6265C42.6468 34.5543 42.4019 34.4768 42.1602 34.391C41.0846 34.0112 40.5615 33.3008 40.6159 32.3036C40.6682 31.3619 41.3473 30.6264 42.3936 30.3805C42.5453 30.3449 42.6981 30.3146 42.8477 30.2832C43.0025 29.4451 43.1218 29.262 43.5016 29.2839C43.8846 29.3059 44.0133 29.5256 44.0635 30.2821C44.1995 30.3135 44.3481 30.347 44.4967 30.3815C45.6037 30.6347 46.2911 31.4163 46.3958 32.538C46.4314 32.9241 46.2388 33.2213 45.9155 33.2788C45.5692 33.3405 45.2898 33.126 45.2239 32.7065C45.1203 32.0389 44.8158 31.5639 44.0499 31.4101C44.0499 32.1299 44.0426 32.8268 44.0614 33.5236C44.0635 33.5896 44.211 33.6764 44.3063 33.712C44.6714 33.849 45.0596 33.9359 45.4091 34.1033C46.1604 34.4643 46.6155 35.0576 46.6228 35.9166C46.6302 36.7652 46.2618 37.439 45.5336 37.8701C45.204 38.0657 44.82 38.2039 44.4433 38.275C44.1378 38.3326 44.0206 38.4194 44.0332 38.7354C44.0457 39.0357 43.8919 39.2659 43.5686 39.3224C43.2934 39.3705 43.0768 39.2669 42.9575 39.0095C42.9157 38.9185 42.9042 38.8097 42.8948 38.7082C42.8843 38.592 42.8927 38.4749 42.8927 38.3598H42.8948ZM44.0646 37.2015C44.8713 37.169 45.4248 36.717 45.4499 36.107C45.474 35.5106 44.9006 35.0366 44.0646 34.9718V37.2015ZM42.8644 33.3123V31.4216C42.2042 31.5021 41.8003 31.8652 41.7878 32.3675C41.7752 32.8906 42.1289 33.2003 42.8644 33.3123Z" fill="#178EEF"/>
<path d="M22.9455 47.1309C23.0313 47.2188 23.2866 47.3611 23.3535 47.5651C23.7428 48.7506 24.0964 49.9476 24.4407 51.1477C24.5432 51.5035 24.3308 51.8289 24.0085 51.9147C23.6779 52.0026 23.3494 51.8404 23.2395 51.4836C22.8775 50.3159 22.5228 49.1461 22.1869 47.9721C22.053 47.5023 22.3386 47.1277 22.9455 47.1319V47.1309Z" fill="#178EEF"/>
<path d="M24.379 52.3209C25.0068 52.3994 24.9608 52.9968 25.1303 53.4311C25.258 53.7596 25.2464 54.0766 24.9189 54.2995C24.5977 54.5182 24.152 54.3937 24.0045 54.0212C23.881 53.7083 23.7847 53.3798 23.7157 53.0502C23.6361 52.6672 23.9521 52.3157 24.378 52.3199L24.379 52.3209Z" fill="#178EEF"/>
</svg>
