<svg width="86" height="86" viewBox="0 0 86 86" fill="none" xmlns="http://www.w3.org/2000/svg">
<circle cx="43" cy="43" r="41.5" fill="#ECF3ED" stroke="#2E8942" stroke-width="3" stroke-dasharray="6 6"/>
<path d="M52.9582 50.0417L42.9998 60L33.0414 50.0417C27.5415 44.5417 27.5415 35.6248 33.0414 30.1249C38.5413 24.625 47.4582 24.625 52.9582 30.1249C58.4581 35.6248 58.4581 44.5417 52.9582 50.0417ZM42.9998 46.3425C46.4566 46.3425 49.259 43.5401 49.259 40.0833C49.259 36.6264 46.4566 33.824 42.9998 33.824C39.5429 33.824 36.7405 36.6264 36.7405 40.0833C36.7405 43.5401 39.5429 46.3425 42.9998 46.3425ZM42.9998 43.2129C41.2713 43.2129 39.8702 41.8118 39.8702 40.0833C39.8702 38.3548 41.2713 36.9537 42.9998 36.9537C44.7283 36.9537 46.1294 38.3548 46.1294 40.0833C46.1294 41.8118 44.7283 43.2129 42.9998 43.2129Z" fill="#EC1E24"/>
</svg>
