<svg width="86" height="86" viewBox="0 0 86 86" fill="none" xmlns="http://www.w3.org/2000/svg">
<circle cx="43" cy="43" r="41.5" fill="#ECF3ED" stroke="#2E8942" stroke-width="3" stroke-dasharray="6 6"/>
<path d="M59.7979 50.4504C59.7963 55.1294 56.5084 59.0401 52.1171 60L51.0772 56.8806C53.0395 56.5603 54.7073 55.3641 55.6662 53.7064H51.649C49.8487 53.7064 48.3894 52.2471 48.3894 50.4468V43.9277C48.3894 42.1274 49.8487 40.6681 51.649 40.6681H56.4375C55.6354 34.2364 50.1489 29.2596 43.5 29.2596C36.8511 29.2596 31.3646 34.2364 30.5626 40.6681H35.3511C37.1513 40.6681 38.6107 42.1274 38.6107 43.9277V50.4468C38.6107 52.2471 37.1513 53.7064 35.3511 53.7064H30.4617C28.6615 53.7064 27.2021 52.2471 27.2021 50.4468V42.2979C27.2021 33.2968 34.499 26 43.5 26C52.501 26 59.7979 33.2968 59.7979 42.2979V43.9256V43.9277V50.4468V50.4504Z" fill="#EC1E24"/>
</svg>
