<svg width="145" height="100" viewBox="0 0 145 100" fill="none" xmlns="http://www.w3.org/2000/svg">
<g clip-path="url(#clip0_1_86419)">
<path d="M138.885 40.4148C138.885 38.732 140.236 37.3513 141.913 37.3513C143.577 37.3513 144.942 38.7177 144.942 40.4148C144.942 42.0975 143.591 43.4783 141.913 43.4783C140.236 43.4783 138.885 42.0975 138.885 40.4148Z" fill="#EC1E24"/>
<path d="M119.038 40.4148C119.038 38.732 120.389 37.3513 122.067 37.3513C123.73 37.3513 125.095 38.7177 125.095 40.4148C125.095 42.0975 123.744 43.4783 122.067 43.4783C120.389 43.4783 119.038 42.0975 119.038 40.4148Z" fill="#EC1E24"/>
<path d="M99.2059 40.4148C99.2059 38.732 100.557 37.3513 102.234 37.3513C103.898 37.3513 105.262 38.7177 105.262 40.4148C105.262 42.0975 103.912 43.4783 102.234 43.4783C100.557 43.4783 99.2059 42.0975 99.2059 40.4148Z" fill="#EC1E24"/>
<path d="M79.359 40.4148C79.359 38.732 80.7096 37.3513 82.3872 37.3513C84.0506 37.3513 85.4154 38.7177 85.4154 40.4148C85.4154 42.0975 84.0648 43.4783 82.3872 43.4783C80.7096 43.4783 79.359 42.0975 79.359 40.4148Z" fill="#EC1E24"/>
<path d="M59.5264 40.4148C59.5264 38.732 60.877 37.3513 62.5546 37.3513C64.218 37.3513 65.5828 38.7177 65.5828 40.4148C65.5828 42.0975 64.2322 43.4783 62.5546 43.4783C60.877 43.4783 59.5264 42.0975 59.5264 40.4148Z" fill="#EC1E24"/>
<path d="M39.6796 40.4148C39.6796 38.732 41.0302 37.3513 42.7078 37.3513C44.3712 37.3513 45.736 38.7177 45.736 40.4148C45.736 42.0975 44.3854 43.4783 42.7078 43.4783C41.0302 43.4783 39.6796 42.0975 39.6796 40.4148Z" fill="#EC1E24"/>
<path d="M19.8468 40.4148C19.8468 38.732 21.1974 37.3513 22.875 37.3513C24.5384 37.3513 25.9032 38.7177 25.9032 40.4148C25.9032 42.0975 24.5526 43.4783 22.875 43.4783C21.1974 43.4783 19.8468 42.0975 19.8468 40.4148Z" fill="#EC1E24"/>
<path d="M0 40.4148C0 38.732 1.35061 37.3513 3.02821 37.3513C4.69159 37.3513 6.05642 38.7177 6.05642 40.4148C6.05642 42.0975 4.70581 43.4783 3.02821 43.4783C1.35061 43.4783 0 42.0975 0 40.4148Z" fill="#EC1E24"/>
<path d="M138.885 21.7319C138.885 20.0492 140.236 18.6685 141.913 18.6685C143.577 18.6685 144.942 20.0348 144.942 21.7319C144.942 23.4147 143.591 24.7954 141.913 24.7954C140.236 24.7954 138.885 23.4291 138.885 21.7319Z" fill="#EC1E24"/>
<path d="M119.038 21.7319C119.038 20.0492 120.389 18.6685 122.067 18.6685C123.73 18.6685 125.095 20.0348 125.095 21.7319C125.095 23.4147 123.744 24.7954 122.067 24.7954C120.389 24.7954 119.038 23.4291 119.038 21.7319Z" fill="#EC1E24"/>
<path d="M99.2059 21.7319C99.2059 20.0492 100.557 18.6685 102.234 18.6685C103.898 18.6685 105.262 20.0348 105.262 21.7319C105.262 23.4147 103.912 24.7954 102.234 24.7954C100.557 24.7954 99.2059 23.4291 99.2059 21.7319Z" fill="#EC1E24"/>
<path d="M79.359 21.7319C79.359 20.0492 80.7096 18.6685 82.3872 18.6685C84.0506 18.6685 85.4154 20.0348 85.4154 21.7319C85.4154 23.4147 84.0648 24.7954 82.3872 24.7954C80.7096 24.7954 79.359 23.4291 79.359 21.7319Z" fill="#EC1E24"/>
<path d="M59.5264 21.7319C59.5264 20.0492 60.877 18.6685 62.5546 18.6685C64.218 18.6685 65.5828 20.0348 65.5828 21.7319C65.5828 23.4147 64.2322 24.7954 62.5546 24.7954C60.877 24.7954 59.5264 23.4291 59.5264 21.7319Z" fill="#EC1E24"/>
<path d="M39.6796 21.7319C39.6796 20.0492 41.0302 18.6685 42.7078 18.6685C44.3712 18.6685 45.736 20.0348 45.736 21.7319C45.736 23.4147 44.3854 24.7954 42.7078 24.7954C41.0302 24.7954 39.6796 23.4291 39.6796 21.7319Z" fill="#EC1E24"/>
<path d="M19.8468 21.7319C19.8468 20.0492 21.1974 18.6685 22.875 18.6685C24.5384 18.6685 25.9032 20.0348 25.9032 21.7319C25.9032 23.4147 24.5526 24.7954 22.875 24.7954C21.1974 24.7954 19.8468 23.4291 19.8468 21.7319Z" fill="#EC1E24"/>
<path d="M0 21.7319C0 20.0492 1.35061 18.6685 3.02821 18.6685C4.69159 18.6685 6.05642 20.0348 6.05642 21.7319C6.05642 23.4147 4.70581 24.7954 3.02821 24.7954C1.35061 24.7954 0 23.4291 0 21.7319Z" fill="#EC1E24"/>
<path d="M138.885 3.06347C138.885 1.38072 140.236 0 141.913 0C143.577 0 144.942 1.36634 144.942 3.06347C144.942 4.74622 143.591 6.12694 141.913 6.12694C140.236 6.11256 138.885 4.74622 138.885 3.06347Z" fill="#EC1E24"/>
<path d="M122.067 6.12694C123.739 6.12694 125.095 4.75538 125.095 3.06347C125.095 1.37156 123.739 0 122.067 0C120.394 0 119.038 1.37156 119.038 3.06347C119.038 4.75538 120.394 6.12694 122.067 6.12694Z" fill="#EC1E24"/>
<path d="M99.2059 3.06347C99.2059 1.36634 100.557 0 102.22 0C103.883 0 105.248 1.36634 105.248 3.06347C105.248 4.74622 103.898 6.12694 102.22 6.12694C100.557 6.11256 99.2059 4.74622 99.2059 3.06347Z" fill="#EC1E24"/>
<path d="M79.359 3.06347C79.359 1.38072 80.7096 0 82.3872 0C84.0506 0 85.4154 1.36634 85.4154 3.06347C85.4154 4.74622 84.0648 6.12694 82.3872 6.12694C80.7096 6.11256 79.359 4.74622 79.359 3.06347Z" fill="#EC1E24"/>
<path d="M62.5404 6.12694C64.2128 6.12694 65.5686 4.75538 65.5686 3.06347C65.5686 1.37156 64.2128 0 62.5404 0C60.868 0 59.5122 1.37156 59.5122 3.06347C59.5122 4.75538 60.868 6.12694 62.5404 6.12694Z" fill="#EC1E24"/>
<path d="M39.6796 3.06347C39.6796 1.38072 41.0302 0 42.7078 0C44.3712 0 45.736 1.36634 45.736 3.06347C45.736 4.74622 44.3854 6.12694 42.7078 6.12694C41.0302 6.11256 39.6796 4.74622 39.6796 3.06347Z" fill="#EC1E24"/>
<path d="M19.8468 3.06347C19.8468 1.38072 21.1974 0 22.875 0C24.5384 0 25.9032 1.36634 25.9032 3.06347C25.9032 4.74622 24.5526 6.12694 22.875 6.12694C21.1974 6.11256 19.8468 4.74622 19.8468 3.06347Z" fill="#EC1E24"/>
<path d="M3.02821 6.12694C4.70064 6.12694 6.05642 4.75538 6.05642 3.06347C6.05642 1.37156 4.70064 0 3.02821 0C1.35578 0 0 1.37156 0 3.06347C0 4.75538 1.35578 6.12694 3.02821 6.12694Z" fill="#EC1E24"/>
</g>
<g clip-path="url(#clip1_1_86419)">
<path d="M138.885 96.9365C138.885 95.2538 140.236 93.873 141.913 93.873C143.577 93.873 144.942 95.2394 144.942 96.9365C144.942 98.6193 143.591 100 141.913 100C140.236 100 138.885 98.6193 138.885 96.9365Z" fill="#EC1E24"/>
<path d="M119.038 96.9365C119.038 95.2538 120.389 93.873 122.067 93.873C123.73 93.873 125.095 95.2394 125.095 96.9365C125.095 98.6193 123.744 100 122.067 100C120.389 100 119.038 98.6193 119.038 96.9365Z" fill="#EC1E24"/>
<path d="M99.2059 96.9365C99.2059 95.2538 100.557 93.873 102.234 93.873C103.898 93.873 105.262 95.2394 105.262 96.9365C105.262 98.6193 103.912 100 102.234 100C100.557 100 99.2059 98.6193 99.2059 96.9365Z" fill="#EC1E24"/>
<path d="M79.359 96.9365C79.359 95.2538 80.7096 93.873 82.3872 93.873C84.0506 93.873 85.4154 95.2394 85.4154 96.9365C85.4154 98.6193 84.0648 100 82.3872 100C80.7096 100 79.359 98.6193 79.359 96.9365Z" fill="#EC1E24"/>
<path d="M59.5264 96.9365C59.5264 95.2538 60.877 93.873 62.5546 93.873C64.218 93.873 65.5828 95.2394 65.5828 96.9365C65.5828 98.6193 64.2322 100 62.5546 100C60.877 100 59.5264 98.6193 59.5264 96.9365Z" fill="#EC1E24"/>
<path d="M39.6796 96.9365C39.6796 95.2538 41.0302 93.873 42.7078 93.873C44.3712 93.873 45.736 95.2394 45.736 96.9365C45.736 98.6193 44.3854 100 42.7078 100C41.0302 100 39.6796 98.6193 39.6796 96.9365Z" fill="#EC1E24"/>
<path d="M19.8468 96.9365C19.8468 95.2538 21.1974 93.873 22.875 93.873C24.5384 93.873 25.9032 95.2394 25.9032 96.9365C25.9032 98.6193 24.5526 100 22.875 100C21.1974 100 19.8468 98.6193 19.8468 96.9365Z" fill="#EC1E24"/>
<path d="M0 96.9365C0 95.2538 1.35061 93.873 3.02821 93.873C4.69159 93.873 6.05642 95.2394 6.05642 96.9365C6.05642 98.6193 4.70581 100 3.02821 100C1.35061 100 0 98.6193 0 96.9365Z" fill="#EC1E24"/>
<path d="M138.885 78.2537C138.885 76.5709 140.236 75.1902 141.913 75.1902C143.577 75.1902 144.942 76.5565 144.942 78.2537C144.942 79.9364 143.591 81.3171 141.913 81.3171C140.236 81.3171 138.885 79.9508 138.885 78.2537Z" fill="#EC1E24"/>
<path d="M119.038 78.2537C119.038 76.5709 120.389 75.1902 122.067 75.1902C123.73 75.1902 125.095 76.5565 125.095 78.2537C125.095 79.9364 123.744 81.3171 122.067 81.3171C120.389 81.3171 119.038 79.9508 119.038 78.2537Z" fill="#EC1E24"/>
<path d="M99.2059 78.2537C99.2059 76.5709 100.557 75.1902 102.234 75.1902C103.898 75.1902 105.262 76.5565 105.262 78.2537C105.262 79.9364 103.912 81.3171 102.234 81.3171C100.557 81.3171 99.2059 79.9508 99.2059 78.2537Z" fill="#EC1E24"/>
<path d="M79.359 78.2537C79.359 76.5709 80.7096 75.1902 82.3872 75.1902C84.0506 75.1902 85.4154 76.5565 85.4154 78.2537C85.4154 79.9364 84.0648 81.3171 82.3872 81.3171C80.7096 81.3171 79.359 79.9508 79.359 78.2537Z" fill="#EC1E24"/>
<path d="M59.5264 78.2537C59.5264 76.5709 60.877 75.1902 62.5546 75.1902C64.218 75.1902 65.5828 76.5565 65.5828 78.2537C65.5828 79.9364 64.2322 81.3171 62.5546 81.3171C60.877 81.3171 59.5264 79.9508 59.5264 78.2537Z" fill="#EC1E24"/>
<path d="M39.6796 78.2537C39.6796 76.5709 41.0302 75.1902 42.7078 75.1902C44.3712 75.1902 45.736 76.5565 45.736 78.2537C45.736 79.9364 44.3854 81.3171 42.7078 81.3171C41.0302 81.3171 39.6796 79.9508 39.6796 78.2537Z" fill="#EC1E24"/>
<path d="M19.8468 78.2537C19.8468 76.5709 21.1974 75.1902 22.875 75.1902C24.5384 75.1902 25.9032 76.5565 25.9032 78.2537C25.9032 79.9364 24.5526 81.3171 22.875 81.3171C21.1974 81.3171 19.8468 79.9508 19.8468 78.2537Z" fill="#EC1E24"/>
<path d="M0 78.2537C0 76.5709 1.35061 75.1902 3.02821 75.1902C4.69159 75.1902 6.05642 76.5565 6.05642 78.2537C6.05642 79.9364 4.70581 81.3171 3.02821 81.3171C1.35061 81.3171 0 79.9508 0 78.2537Z" fill="#EC1E24"/>
<path d="M138.885 59.5852C138.885 57.9024 140.236 56.5217 141.913 56.5217C143.577 56.5217 144.942 57.8881 144.942 59.5852C144.942 61.2679 143.591 62.6487 141.913 62.6487C140.236 62.6343 138.885 61.2679 138.885 59.5852Z" fill="#EC1E24"/>
<path d="M122.067 62.6487C123.739 62.6487 125.095 61.2771 125.095 59.5852C125.095 57.8933 123.739 56.5217 122.067 56.5217C120.394 56.5217 119.038 57.8933 119.038 59.5852C119.038 61.2771 120.394 62.6487 122.067 62.6487Z" fill="#EC1E24"/>
<path d="M99.2059 59.5852C99.2059 57.8881 100.557 56.5217 102.22 56.5217C103.883 56.5217 105.248 57.8881 105.248 59.5852C105.248 61.2679 103.898 62.6487 102.22 62.6487C100.557 62.6343 99.2059 61.2679 99.2059 59.5852Z" fill="#EC1E24"/>
<path d="M79.359 59.5852C79.359 57.9024 80.7096 56.5217 82.3872 56.5217C84.0506 56.5217 85.4154 57.8881 85.4154 59.5852C85.4154 61.2679 84.0648 62.6487 82.3872 62.6487C80.7096 62.6343 79.359 61.2679 79.359 59.5852Z" fill="#EC1E24"/>
<path d="M62.5404 62.6487C64.2128 62.6487 65.5686 61.2771 65.5686 59.5852C65.5686 57.8933 64.2128 56.5217 62.5404 56.5217C60.868 56.5217 59.5122 57.8933 59.5122 59.5852C59.5122 61.2771 60.868 62.6487 62.5404 62.6487Z" fill="#EC1E24"/>
<path d="M39.6796 59.5852C39.6796 57.9024 41.0302 56.5217 42.7078 56.5217C44.3712 56.5217 45.736 57.8881 45.736 59.5852C45.736 61.2679 44.3854 62.6487 42.7078 62.6487C41.0302 62.6343 39.6796 61.2679 39.6796 59.5852Z" fill="#EC1E24"/>
<path d="M19.8468 59.5852C19.8468 57.9024 21.1974 56.5217 22.875 56.5217C24.5384 56.5217 25.9032 57.8881 25.9032 59.5852C25.9032 61.2679 24.5526 62.6487 22.875 62.6487C21.1974 62.6343 19.8468 61.2679 19.8468 59.5852Z" fill="#EC1E24"/>
<path d="M3.02821 62.6487C4.70064 62.6487 6.05642 61.2771 6.05642 59.5852C6.05642 57.8933 4.70064 56.5217 3.02821 56.5217C1.35578 56.5217 0 57.8933 0 59.5852C0 61.2771 1.35578 62.6487 3.02821 62.6487Z" fill="#EC1E24"/>
</g>
<defs>
<clipPath id="clip0_1_86419">
<rect width="144.928" height="43.4783" fill="white"/>
</clipPath>
<clipPath id="clip1_1_86419">
<rect width="144.928" height="43.4783" fill="white" transform="translate(0 56.5217)"/>
</clipPath>
</defs>
</svg>
