<svg width="150" height="150" viewBox="0 0 150 150" fill="none" xmlns="http://www.w3.org/2000/svg">
<path d="M104.535 20.2795C101.516 23.1816 98.6202 26.0244 95.6242 28.7577C95.2822 29.0726 94.3155 28.9357 93.7409 28.7304C73.7268 21.4887 55.5914 24.8061 40.3334 39.5814C13.0825 65.9745 25.0709 112.418 61.5332 122.877C89.1626 130.803 117.645 113.746 123.751 85.5594C125.876 75.7487 125.091 66.116 121.389 56.7707C120.841 55.3926 121.015 54.5211 122.1 53.4761C124.722 50.9573 127.194 48.2833 129.811 45.5865C143.528 70.4829 138.489 104.88 112.829 124.515C87.8949 143.598 52.1486 140.946 30.7847 118.491C8.44034 95.005 7.17264 59.2165 27.7066 34.8404C48.4048 10.2589 82.1949 7.41605 104.535 20.2795Z" fill="#2E8942"/>
<path d="M90.3118 34.2607C86.8279 37.5964 87.8402 41.9496 87.594 46.2891C78.0497 42.6477 68.811 42.9398 59.9144 47.8771C54.1413 51.0804 49.8001 55.6982 47.0914 61.717C41.3549 74.4572 44.0909 88.7489 53.8631 97.7656C63.8269 106.956 78.3963 108.877 89.8329 102.511C96.8783 98.5915 101.812 92.8831 104.489 85.2444C107.157 77.6286 106.687 70.0903 103.705 62.5247C107.973 62.0547 112.378 63.3962 115.707 59.9054C121.329 72.6 119.934 94.7448 102.697 108.945C86.1119 122.607 61.8615 122.05 45.8739 107.585C29.8179 93.061 26.822 68.8172 38.8879 50.7518C51.3369 32.1161 74.0551 27.626 90.3118 34.2607Z" fill="#2E8942"/>
<path d="M97.7948 64.8156C102.752 76.05 98.8026 89.0959 89.076 95.6212C79.1532 102.279 66.0157 100.942 57.5841 92.4224C49.2347 83.9807 48.081 70.3461 54.8937 60.6495C61.6472 51.0441 74.3925 47.3388 84.6937 52.1164C84.2058 52.6549 83.7772 53.1796 83.3029 53.6588C78.4966 58.4957 73.6265 63.2687 68.8885 68.174C64.5838 72.6276 65.0627 79.0023 69.8188 82.5433C73.3392 85.1671 78.524 84.7381 81.9531 81.3797C86.6728 76.7527 91.3058 72.0436 95.9434 67.3344C96.5818 66.6956 97.0333 65.8697 97.7948 64.8156Z" fill="#2E8942"/>
<path d="M118.653 31.377C121.799 31.377 124.603 31.3998 127.412 31.3678C129.049 31.3496 130.582 31.8424 130.832 33.4988C130.997 34.6122 130.554 36.2047 129.788 37.0033C123.933 43.0814 117.969 49.0499 111.931 54.9455C111.128 55.7303 109.733 56.1957 108.579 56.2733C105.779 56.4604 102.952 56.2094 100.148 56.3965C99.026 56.4695 97.6762 56.9578 96.8919 57.729C90.7085 63.7796 84.639 69.9444 78.5331 76.0681C78.036 76.5655 77.5481 77.0902 76.9781 77.4872C75.6602 78.4044 74.2968 78.3497 73.134 77.2454C71.9848 76.1548 71.7705 74.7813 72.605 73.4078C73.0337 72.7005 73.6812 72.1165 74.274 71.5187C80.3754 65.3859 86.5178 59.2895 92.5553 53.0974C93.2895 52.3445 93.7911 51.0805 93.8549 50.0173C94.0327 47.1425 93.7956 44.245 93.978 41.3702C94.051 40.2157 94.5024 38.824 95.2777 38.0209C101.096 32.0112 107.002 26.0746 112.998 20.243C113.805 19.4581 115.36 18.9562 116.477 19.0885C118.146 19.2847 118.684 20.7997 118.666 22.447C118.63 25.3217 118.653 28.1919 118.653 31.377Z" fill="#2E8942"/>
</svg>
