<svg width="1448" height="159" viewBox="0 0 1448 159" fill="none" xmlns="http://www.w3.org/2000/svg">
<path d="M0 150.902C0 155.32 3.58172 158.902 8 158.902C12.4183 158.902 16 155.32 16 150.902C16 146.484 12.4183 142.902 8 142.902C3.58172 142.902 0 146.484 0 150.902ZM1447.5 2.54979C1447.53 1.72182 1446.88 1.02832 1446.05 1.00083L1432.56 0.552734C1431.73 0.525237 1431.04 1.17415 1431.01 2.00212C1430.98 2.83009 1431.63 3.52358 1432.46 3.55108L1444.45 3.94939L1444.05 15.9428C1444.03 16.7707 1444.67 17.4642 1445.5 17.4917C1446.33 17.5192 1447.02 16.8703 1447.05 16.0423L1447.5 2.54979ZM8 150.902L9.02701 151.995C9.65179 151.408 10.3506 150.809 11.1223 150.2L10.1925 149.023L9.26264 147.846C8.43329 148.501 7.6684 149.155 6.97299 149.809L8 150.902ZM15.0275 145.642L15.8273 146.911C17.343 145.956 19.0037 144.987 20.8008 144.006L20.0824 142.69L19.364 141.373C17.5204 142.379 15.8044 143.379 14.2276 144.373L15.0275 145.642ZM25.3044 139.993L25.9653 141.34C27.6433 140.516 29.4063 139.687 31.2489 138.855L30.6312 137.488L30.0136 136.121C28.1449 136.965 26.3528 137.807 24.6434 138.646L25.3044 139.993ZM36.0352 135.13L36.6186 136.512C38.3731 135.771 40.1849 135.029 42.0503 134.285L41.4951 132.892L40.9399 131.498C39.0571 132.249 37.2264 132.999 35.4519 133.748L36.0352 135.13ZM46.9458 130.775L47.4774 132.177C49.2646 131.5 51.0928 130.823 52.9591 130.146L52.4479 128.736L51.9367 127.326C50.0575 128.007 48.2157 128.689 46.4142 129.372L46.9458 130.775ZM57.9981 126.765L58.4912 128.182C60.3198 127.545 62.1795 126.91 64.068 126.276L63.591 124.854L63.114 123.432C61.2152 124.069 59.3447 124.708 57.5049 125.348L57.9981 126.765ZM69.146 123.023L69.6085 124.45C71.4481 123.854 73.3111 123.26 75.1956 122.668L74.7464 121.237L74.2973 119.806C72.4042 120.4 70.5322 120.997 68.6835 121.596L69.146 123.023ZM80.3845 119.495L80.8213 120.93C82.6724 120.366 84.5412 119.806 86.4259 119.249L86.0007 117.81L85.5754 116.372C83.6832 116.931 81.8067 117.494 79.9478 118.06L80.3845 119.495ZM91.6448 116.165L92.0592 117.607C93.9339 117.068 95.822 116.533 97.7217 116.002L97.3177 114.557L96.9138 113.112C95.0073 113.646 93.1123 114.183 91.2305 114.724L91.6448 116.165ZM102.971 112.997L103.365 114.444C105.247 113.932 107.138 113.424 109.037 112.92L108.653 111.47L108.268 110.021C106.363 110.526 104.465 111.036 102.577 111.55L102.971 112.997ZM114.345 109.981L114.72 111.433C116.609 110.945 118.505 110.462 120.404 109.984L120.038 108.529L119.672 107.074C117.766 107.554 115.865 108.039 113.969 108.528L114.345 109.981ZM125.747 107.111L126.105 108.568C128.004 108.102 129.906 107.642 131.809 107.188L131.461 105.729L131.113 104.27C129.204 104.726 127.296 105.187 125.39 105.654L125.747 107.111ZM137.187 104.381L137.526 105.842C139.433 105.399 141.339 104.962 143.243 104.532L142.913 103.069L142.582 101.606C140.673 102.037 138.76 102.475 136.847 102.92L137.187 104.381ZM148.658 101.79L148.98 103.255C150.897 102.835 152.811 102.421 154.718 102.015L154.406 100.548L154.094 99.0809C152.18 99.4882 150.26 99.903 148.337 100.325L148.658 101.79ZM160.153 99.344L160.456 100.813C162.386 100.415 164.308 100.026 166.221 99.6444L165.928 98.1733L165.635 96.7022C163.715 97.0847 161.786 97.4757 159.85 97.8749L160.153 99.344ZM171.692 97.0451L171.975 98.5182C173.909 98.1467 175.83 97.7846 177.738 97.4322L177.466 95.9572L177.193 94.4821C175.278 94.8358 173.349 95.1992 171.409 95.572L171.692 97.0451ZM183.267 94.9085L183.528 96.3856C185.469 96.0424 187.394 95.7101 189.3 95.3891L189.051 93.9099L188.802 92.4307C186.888 92.7531 184.955 93.0869 183.006 93.4314L183.267 94.9085ZM194.844 92.9601L195.08 94.4414C197.043 94.1284 198.984 93.8285 200.899 93.5422L200.677 92.0587L200.455 90.5752C198.53 90.863 196.58 91.1644 194.608 91.4788L194.844 92.9601ZM206.496 91.2197L206.702 92.7054C208.662 92.4336 210.592 92.1775 212.487 91.9377L212.299 90.4495L212.11 88.9614C210.203 89.2028 208.261 89.4605 206.29 89.7339L206.496 91.2197ZM218.143 89.7499L218.31 91.2405C220.305 91.016 222.254 90.8118 224.156 90.6289L224.012 89.1358L223.868 87.6427C221.95 87.8273 219.984 88.0331 217.975 88.2593L218.143 89.7499ZM229.88 88.6268L229.994 90.1224C232.007 89.9683 233.953 89.8418 235.828 89.7441L235.75 88.2461L235.672 86.7482C233.771 86.8473 231.8 86.9753 229.765 87.1312L229.88 88.6268ZM241.629 88.0295L241.658 89.5292C242.631 89.5098 243.579 89.5 244.5 89.5V88V86.5C243.557 86.5 242.59 86.51 241.599 86.5298L241.629 88.0295ZM244.5 88V89.5C245.476 89.5 246.462 89.5157 247.458 89.5465L247.505 88.0472L247.551 86.5479C246.525 86.5162 245.508 86.5 244.5 86.5V88ZM253.55 88.404L253.422 89.8986C255.374 90.0655 257.358 90.283 259.375 90.5476L259.57 89.0604L259.766 87.5731C257.707 87.303 255.678 87.0805 253.678 86.9095L253.55 88.404ZM265.558 89.9643L265.307 91.4432C267.249 91.7726 269.218 92.1402 271.213 92.5432L271.51 91.0729L271.807 89.6026C269.784 89.1939 267.784 88.8205 265.809 88.4854L265.558 89.9643ZM277.428 92.351L277.093 93.813C279.022 94.2552 280.973 94.7263 282.947 95.2239L283.313 93.7694L283.68 92.3149C281.688 91.8125 279.715 91.3363 277.763 90.8889L277.428 92.351ZM289.171 95.3041L288.778 96.7518C290.697 97.2724 292.634 97.8147 294.591 98.3767L295.005 96.935L295.419 95.4933C293.45 94.9276 291.498 94.3812 289.564 93.8565L289.171 95.3041ZM300.819 98.6448L300.387 100.081C302.299 100.656 304.228 101.246 306.172 101.851L306.617 100.419L307.063 98.9865C305.11 98.3791 303.173 97.7857 301.25 97.2082L300.819 98.6448ZM312.392 102.24L311.936 103.669C313.837 104.277 315.753 104.895 317.682 105.524L318.147 104.098L318.611 102.672C316.677 102.041 314.756 101.421 312.849 100.811L312.392 102.24ZM323.897 105.985L323.427 107.409C325.33 108.038 327.245 108.674 329.173 109.316L329.647 107.893L330.121 106.47C328.192 105.827 326.274 105.19 324.368 104.561L323.897 105.985ZM335.397 109.814L334.922 111.236C336.825 111.873 338.74 112.514 340.665 113.157L341.14 111.735L341.616 110.312C339.691 109.669 337.778 109.028 335.873 108.391L335.397 109.814ZM346.878 113.65L346.405 115.073C348.312 115.708 350.229 116.344 352.156 116.98L352.626 115.555L353.096 114.131C351.172 113.496 349.258 112.861 347.352 112.226L346.878 113.65ZM358.384 117.445L357.919 118.871C359.833 119.496 361.757 120.119 363.689 120.739L364.148 119.311L364.606 117.883C362.679 117.264 360.76 116.642 358.849 116.019L358.384 117.445ZM369.913 121.144L369.463 122.575C371.385 123.181 373.316 123.782 375.254 124.378L375.695 122.944L376.136 121.511C374.205 120.917 372.28 120.317 370.364 119.714L369.913 121.144ZM381.493 124.704L381.063 126.141C382.996 126.72 384.937 127.292 386.884 127.856L387.301 126.416L387.719 124.975C385.781 124.413 383.849 123.843 381.923 123.267L381.493 124.704ZM393.123 128.074L392.719 129.519C394.664 130.063 396.617 130.598 398.575 131.124L398.964 129.675L399.352 128.226C397.405 127.703 395.463 127.171 393.527 126.629L393.123 128.074ZM404.823 131.212L404.451 132.665C406.409 133.167 408.373 133.657 410.342 134.136L410.697 132.678L411.051 131.221C409.094 130.745 407.142 130.258 405.196 129.759L404.823 131.212ZM416.59 134.069L416.255 135.531C418.228 135.983 420.206 136.421 422.189 136.845L422.503 135.378L422.816 133.911C420.848 133.49 418.884 133.055 416.924 132.607L416.59 134.069ZM428.434 136.598L428.143 138.07C430.13 138.463 432.121 138.84 434.116 139.201L434.383 137.724L434.65 136.248C432.671 135.891 430.696 135.517 428.725 135.127L428.434 136.598ZM440.351 138.75L440.11 140.23C442.111 140.556 444.115 140.864 446.123 141.153L446.337 139.668L446.55 138.183C444.561 137.897 442.575 137.592 440.592 137.269L440.351 138.75ZM452.338 140.472L452.154 141.961C454.166 142.21 456.182 142.439 458.201 142.647L458.354 141.155L458.508 139.663C456.511 139.457 454.515 139.23 452.523 138.983L452.338 140.472ZM464.384 141.711L464.263 143.207C466.285 143.371 468.31 143.513 470.337 143.631L470.425 142.133L470.512 140.636C468.508 140.519 466.506 140.379 464.505 140.216L464.384 141.711ZM476.472 142.414L476.421 143.913C477.436 143.948 478.451 143.977 479.467 144L479.5 142.5L479.533 141C478.53 140.978 477.527 140.95 476.524 140.915L476.472 142.414ZM479.5 142.5L479.467 144C480.491 144.022 481.516 144.037 482.543 144.045L482.554 142.545L482.566 141.045C481.554 141.038 480.543 141.023 479.533 141L479.5 142.5ZM488.676 142.507L488.706 144.007C490.754 143.966 492.805 143.898 494.859 143.804L494.79 142.305L494.721 140.807C492.693 140.9 490.668 140.967 488.647 141.008L488.676 142.507ZM500.896 141.949L501.002 143.445C503.045 143.301 505.09 143.132 507.137 142.94L506.997 141.447L506.857 139.954C504.832 140.143 502.81 140.31 500.791 140.452L500.896 141.949ZM513.085 140.809L513.257 142.299C515.289 142.065 517.322 141.808 519.355 141.532L519.152 140.045L518.95 138.559C516.936 138.833 514.924 139.087 512.913 139.319L513.085 140.809ZM525.208 139.162L525.438 140.645C527.461 140.33 529.484 139.997 531.506 139.647L531.25 138.169L530.993 136.691C528.988 137.039 526.983 137.369 524.978 137.68L525.208 139.162ZM537.267 137.073L537.548 138.547C539.557 138.164 541.565 137.766 543.572 137.352L543.269 135.883L542.966 134.414C540.974 134.825 538.98 135.22 536.987 135.6L537.267 137.073ZM549.255 134.604L549.579 136.068C551.576 135.627 553.571 135.172 555.564 134.705L555.221 133.244L554.878 131.784C552.898 132.249 550.915 132.701 548.932 133.139L549.255 134.604ZM561.17 131.81L561.53 133.266C563.516 132.775 565.499 132.272 567.479 131.76L567.103 130.308L566.726 128.855C564.757 129.366 562.785 129.865 560.81 130.354L561.17 131.81ZM573.018 128.743L573.409 130.191C575.384 129.659 577.356 129.117 579.324 128.567L578.92 127.122L578.517 125.677C576.557 126.225 574.594 126.765 572.627 127.295L573.018 128.743ZM584.807 125.451L585.223 126.892C587.188 126.326 589.148 125.753 591.104 125.174L590.678 123.736L590.252 122.297C588.303 122.874 586.35 123.445 584.392 124.009L584.807 125.451ZM596.544 121.979L596.979 123.415C598.938 122.821 600.892 122.224 602.84 121.623L602.398 120.19L601.955 118.756C600.012 119.356 598.064 119.952 596.11 120.544L596.544 121.979ZM608.236 118.373L608.685 119.805C610.64 119.192 612.588 118.577 614.528 117.962L614.075 116.532L613.621 115.102C611.684 115.717 609.739 116.33 607.788 116.942L608.236 118.373ZM619.91 114.673L620.367 116.102C622.317 115.478 624.26 114.854 626.193 114.233L625.734 112.805L625.275 111.377C623.342 111.998 621.401 112.621 619.453 113.244L619.91 114.673ZM631.552 110.932L632.012 112.36C633.967 111.731 635.911 111.105 637.846 110.484L637.387 109.055L636.929 107.627C634.993 108.249 633.047 108.875 631.093 109.504L631.552 110.932ZM643.218 107.188L643.674 108.617C645.626 107.994 647.567 107.378 649.496 106.769L649.044 105.338L648.593 103.908C646.66 104.518 644.716 105.135 642.762 105.759L643.218 107.188ZM654.878 103.511L655.323 104.943C657.287 104.333 659.238 103.732 661.174 103.144L660.738 101.708L660.302 100.273C658.358 100.864 656.402 101.466 654.433 102.078L654.878 103.511ZM666.604 99.9487L667.029 101.387C668.998 100.805 670.951 100.237 672.888 99.6845L672.477 98.242L672.065 96.7995C670.118 97.3548 668.156 97.9257 666.178 98.5103L666.604 99.9487ZM678.361 96.6L678.755 98.0473C680.738 97.5069 682.702 96.9856 684.647 96.4853L684.273 95.0326L683.899 93.5799C681.94 94.084 679.962 94.609 677.966 95.1528L678.361 96.6ZM690.222 93.5546L690.571 95.0135C692.575 94.5346 694.556 94.0813 696.513 93.6558L696.194 92.19L695.876 90.7243C693.897 91.1544 691.896 91.6124 689.874 92.0957L690.222 93.5546ZM702.192 90.9611L702.474 92.4343C704.497 92.0465 706.491 91.6928 708.457 91.3758L708.218 89.895L707.979 88.4141C705.982 88.7361 703.959 89.0951 701.909 89.488L702.192 90.9611ZM714.275 89.0247L714.461 90.5131C716.504 90.2576 718.512 90.0476 720.483 89.8863L720.361 88.3913L720.238 86.8963C718.221 87.0613 716.171 87.2758 714.089 87.5363L714.275 89.0247ZM726.469 88.0458L726.514 89.5451C727.52 89.5152 728.516 89.5 729.5 89.5V88V86.5C728.485 86.5 727.46 86.5157 726.425 86.5464L726.469 88.0458ZM729.5 88V89.5C730.463 89.5 731.429 89.5093 732.399 89.5278L732.427 88.028L732.456 86.5283C731.467 86.5095 730.482 86.5 729.5 86.5V88ZM738.296 88.2449L738.215 89.7427C740.137 89.8472 742.074 89.9844 744.026 90.1524L744.154 88.6579L744.283 87.1634C742.301 86.9928 740.333 86.8534 738.377 86.7471L738.296 88.2449ZM749.998 89.2453L749.828 90.7356C751.743 90.9548 753.672 91.2009 755.617 91.4724L755.824 89.9868L756.032 88.5012C754.064 88.2265 752.11 87.9772 750.169 87.7551L749.998 89.2453ZM761.632 90.8631L761.393 92.3439C763.298 92.6521 765.219 92.9822 767.154 93.3327L767.422 91.8567L767.689 90.3807C765.736 90.0271 763.797 89.6937 761.872 89.3823L761.632 90.8631ZM773.194 92.9515L772.903 94.423C774.8 94.7983 776.712 95.1912 778.639 95.6002L778.951 94.1328L779.262 92.6655C777.323 92.2539 775.397 91.8582 773.485 91.48L773.194 92.9515ZM784.694 95.3875L784.366 96.8512C786.256 97.2753 788.161 97.7131 790.082 98.1633L790.424 96.703L790.766 95.2426C788.838 94.7903 786.923 94.3503 785.023 93.9239L784.694 95.3875ZM796.13 98.0652L795.776 99.5229C797.658 99.9796 799.554 100.447 801.466 100.923L801.828 99.4676L802.191 98.0121C800.275 97.5345 798.372 97.0659 796.484 96.6075L796.13 98.0652ZM807.522 100.902L807.153 102.355C809.034 102.834 810.93 103.319 812.841 103.812L813.215 102.359L813.589 100.906C811.676 100.414 809.777 99.9269 807.892 99.4477L807.522 100.902ZM818.909 103.833L818.532 105.285C820.413 105.774 822.308 106.267 824.217 106.766L824.596 105.314L824.974 103.863C823.065 103.364 821.169 102.87 819.286 102.381L818.909 103.833ZM830.27 106.794L829.892 108.246C831.773 108.736 833.667 109.229 835.576 109.724L835.953 108.272L836.329 106.82C834.422 106.326 832.529 105.833 830.649 105.343L830.27 106.794ZM841.645 109.744L841.271 111.197C843.159 111.682 845.06 112.169 846.976 112.657L847.346 111.203L847.716 109.75C845.803 109.263 843.904 108.777 842.019 108.291L841.645 109.744ZM853.028 112.639L852.664 114.094C854.551 114.567 856.452 115.04 858.367 115.511L858.726 114.055L859.085 112.598C857.174 112.128 855.277 111.656 853.393 111.184L853.028 112.639ZM864.441 115.448L864.089 116.906C865.984 117.363 867.891 117.818 869.812 118.271L870.156 116.81L870.5 115.35C868.584 114.899 866.682 114.446 864.793 113.99L864.441 115.448ZM875.868 118.138L875.533 119.6C877.434 120.036 879.348 120.469 881.276 120.898L881.602 119.434L881.928 117.97C880.006 117.542 878.098 117.111 876.203 116.676L875.868 118.138ZM887.35 120.693L887.034 122.159C888.935 122.569 890.85 122.975 892.777 123.375L893.083 121.907L893.388 120.438C891.468 120.039 889.56 119.635 887.666 119.227L887.35 120.693ZM898.841 123.082L898.546 124.552C900.463 124.936 902.392 125.314 904.334 125.686L904.616 124.213L904.899 122.74C902.965 122.369 901.044 121.992 899.135 121.611L898.841 123.082ZM910.375 125.293L910.105 126.769C912.025 127.121 913.958 127.467 915.904 127.807L916.162 126.329L916.42 124.851C914.483 124.513 912.558 124.169 910.645 123.818L910.375 125.293ZM921.958 127.315L921.713 128.794C923.635 129.112 925.568 129.424 927.515 129.728L927.746 128.246L927.978 126.764C926.041 126.461 924.116 126.151 922.203 125.835L921.958 127.315ZM933.566 129.129L933.348 130.613C935.276 130.896 937.217 131.172 939.17 131.44L939.374 129.954L939.578 128.468C937.635 128.201 935.703 127.926 933.784 127.644L933.566 129.129ZM945.194 130.726L945.004 132.214C946.945 132.462 948.899 132.702 950.864 132.934L951.04 131.444L951.215 129.954C949.26 129.724 947.316 129.485 945.384 129.238L945.194 130.726ZM956.858 132.101L956.697 133.593C958.642 133.803 960.599 134.005 962.568 134.198L962.714 132.705L962.86 131.212C960.902 131.02 958.955 130.819 957.02 130.61L956.858 132.101ZM968.554 133.248L968.422 134.742C969.404 134.829 970.388 134.913 971.376 134.995L971.5 133.5L971.624 132.005C970.642 131.924 969.662 131.84 968.685 131.754L968.554 133.248ZM971.5 133.5L971.376 134.995C972.362 135.077 973.347 135.153 974.332 135.224L974.44 133.728L974.549 132.232C973.575 132.162 972.6 132.086 971.624 132.005L971.5 133.5ZM980.305 134.093L980.227 135.591C982.201 135.694 984.171 135.777 986.137 135.84L986.185 134.34L986.233 132.841C984.286 132.779 982.336 132.697 980.383 132.595L980.305 134.093ZM992.054 134.471L992.035 135.971C994.012 135.996 995.984 136.002 997.952 135.989L997.942 134.489L997.932 132.989C995.984 133.002 994.031 132.996 992.073 132.971L992.054 134.471ZM1003.82 134.396L1003.86 135.896C1005.83 135.847 1007.8 135.779 1009.76 135.695L1009.69 134.196L1009.63 132.698C1007.69 132.781 1005.74 132.848 1003.78 132.897L1003.82 134.396ZM1015.57 133.892L1015.66 135.389C1017.63 135.27 1019.59 135.134 1021.54 134.982L1021.43 133.487L1021.31 131.991C1019.37 132.142 1017.43 132.276 1015.48 132.394L1015.57 133.892ZM1027.29 132.981L1027.44 134.475C1029.4 134.289 1031.36 134.089 1033.31 133.873L1033.14 132.382L1032.98 130.891C1031.04 131.105 1029.1 131.304 1027.15 131.488L1027.29 132.981ZM1038.98 131.691L1039.17 133.179C1041.13 132.931 1043.08 132.669 1045.02 132.394L1044.81 130.909L1044.6 129.424C1042.67 129.697 1040.74 129.957 1038.79 130.202L1038.98 131.691ZM1050.62 130.044L1050.85 131.526C1052.8 131.221 1054.75 130.902 1056.68 130.572L1056.43 129.093L1056.18 127.615C1054.26 127.943 1052.33 128.259 1050.39 128.562L1050.62 130.044ZM1062.22 128.065L1062.49 129.54C1064.43 129.182 1066.36 128.813 1068.28 128.433L1067.99 126.962L1067.69 125.49C1065.79 125.867 1063.87 126.234 1061.95 126.59L1062.22 128.065ZM1073.76 125.781L1074.07 127.249C1076 126.842 1077.92 126.424 1079.83 125.998L1079.5 124.534L1079.17 123.07C1077.28 123.494 1075.37 123.909 1073.45 124.314L1073.76 125.781ZM1085.23 123.221L1085.57 124.681C1087.5 124.227 1089.41 123.766 1091.31 123.297L1090.95 121.84L1090.59 120.384C1088.7 120.851 1086.8 121.31 1084.88 121.761L1085.23 123.221ZM1096.65 120.404L1097.02 121.857C1098.94 121.364 1100.84 120.864 1102.72 120.359L1102.33 118.91L1101.94 117.461C1100.07 117.964 1098.18 118.461 1096.27 118.952L1096.65 120.404ZM1108.02 117.36L1108.42 118.805C1110.32 118.276 1112.21 117.743 1114.08 117.206L1113.67 115.764L1113.26 114.322C1111.39 114.857 1109.51 115.388 1107.62 115.914L1108.02 117.36ZM1119.31 114.124L1119.73 115.563C1121.64 115 1123.52 114.436 1125.39 113.87L1124.96 112.435L1124.52 110.999C1122.66 111.563 1120.78 112.125 1118.88 112.685L1119.31 114.124ZM1130.58 110.712L1131.02 112.145C1132.91 111.56 1134.78 110.975 1136.63 110.392L1136.18 108.962L1135.72 107.531C1133.88 108.113 1132.02 108.696 1130.14 109.279L1130.58 110.712ZM1141.78 107.178L1142.24 108.607C1144.14 107.998 1146.01 107.394 1147.86 106.796L1147.39 105.369L1146.93 103.942C1145.09 104.54 1143.22 105.143 1141.32 105.75L1141.78 107.178ZM1152.99 103.547L1153.45 104.973C1155.34 104.355 1157.21 103.746 1159.04 103.146L1158.57 101.721L1158.1 100.295C1156.27 100.895 1154.41 101.504 1152.52 102.121L1152.99 103.547ZM1164.15 99.8977L1164.61 101.324C1166.51 100.706 1168.37 100.102 1170.19 99.5156L1169.73 98.088L1169.26 96.6603C1167.44 97.2484 1165.58 97.853 1163.68 98.4716L1164.15 99.8977ZM1175.34 96.2969L1175.79 97.7274C1177.7 97.1227 1179.57 96.5419 1181.39 95.9882L1180.96 94.5532L1180.52 93.1182C1178.69 93.6754 1176.81 94.2593 1174.89 94.8664L1175.34 96.2969ZM1186.59 92.8829L1187 94.3244C1188.95 93.7652 1190.83 93.2459 1192.63 92.771L1192.25 91.3201L1191.87 89.8693C1190.04 90.351 1188.14 90.8768 1186.17 91.4413L1186.59 92.8829ZM1197.99 89.9149L1198.32 91.3785C1200.33 90.9277 1202.23 90.5509 1204.02 90.2558L1203.77 88.7758L1203.53 87.2958C1201.67 87.602 1199.72 87.9905 1197.66 88.4514L1197.99 89.9149ZM1209.58 88.08L1209.68 89.5769C1210.66 89.513 1211.6 89.4869 1212.48 89.4998L1212.5 88L1212.52 86.5002C1211.55 86.4859 1210.54 86.5148 1209.49 86.5832L1209.58 88.08ZM1212.5 88L1212.48 89.4998C1213.42 89.5137 1214.43 89.5117 1215.51 89.4935L1215.48 87.9937L1215.46 86.4939C1214.41 86.5116 1213.43 86.5135 1212.52 86.5002L1212.5 88ZM1221.48 87.7607L1221.56 89.2583C1223.45 89.1496 1225.47 89.0049 1227.62 88.8227L1227.49 87.3281L1227.36 85.8335C1225.24 86.0135 1223.25 86.1562 1221.39 86.2632L1221.48 87.7607ZM1233.5 86.7502L1233.66 88.2418C1235.59 88.0362 1237.6 87.8044 1239.68 87.5457L1239.49 86.0572L1239.31 84.5686C1237.25 84.8253 1235.26 85.055 1233.34 85.2587L1233.5 86.7502ZM1245.47 85.2659L1245.67 86.7514C1247.62 86.4789 1249.61 86.185 1251.65 85.869L1251.42 84.3866L1251.19 82.9043C1249.17 83.2181 1247.19 83.51 1245.26 83.7805L1245.47 85.2659ZM1257.37 83.4256L1257.62 84.9048C1259.57 84.5765 1261.55 84.2293 1263.57 83.8627L1263.31 82.3868L1263.04 80.9109C1261.03 81.2752 1259.06 81.6202 1257.12 81.9464L1257.37 83.4256ZM1269.24 81.2728L1269.53 82.7453C1271.48 82.366 1273.47 81.9691 1275.48 81.5545L1275.17 80.0855L1274.87 78.6164C1272.87 79.0286 1270.9 79.4231 1268.96 79.8002L1269.24 81.2728ZM1281.05 78.8383L1281.37 80.3038C1283.31 79.8793 1285.27 79.4387 1287.26 78.9816L1286.92 77.52L1286.58 76.0583C1284.61 76.5128 1282.66 76.9509 1280.73 77.3729L1281.05 78.8383ZM1292.79 76.1304L1293.15 77.588C1295.09 77.1161 1297.05 76.6286 1299.03 76.1252L1298.65 74.6717L1298.28 73.2182C1296.32 73.7187 1294.37 74.2034 1292.44 74.6727L1292.79 76.1304ZM1304.47 73.1538L1304.86 74.603C1306.79 74.0864 1308.73 73.5548 1310.69 73.0079L1310.28 71.5634L1309.88 70.1189C1307.94 70.6626 1306 71.1911 1304.08 71.7047L1304.47 73.1538ZM1316.09 69.9004L1316.51 71.3399C1318.43 70.7782 1320.36 70.2017 1322.29 69.6103L1321.85 68.1759L1321.41 66.7415C1319.49 67.3293 1317.58 67.9024 1315.67 68.4608L1316.09 69.9004ZM1327.6 66.3777L1328.06 67.8066C1329.97 67.1948 1331.89 66.5684 1333.82 65.9271L1333.34 64.5041L1332.87 63.0811C1330.96 63.7184 1329.05 64.3409 1327.15 64.9489L1327.6 66.3777ZM1339.04 62.5637L1339.53 63.9804C1341.43 63.3202 1343.33 62.6454 1345.23 61.9557L1344.72 60.5457L1344.21 59.1356C1342.32 59.8207 1340.43 60.4911 1338.55 61.147L1339.04 62.5637ZM1350.38 58.4483L1350.91 59.8512C1352.79 59.1399 1354.66 58.4139 1356.54 57.673L1355.99 56.2778L1355.44 54.8826C1353.58 55.6182 1351.71 56.3391 1349.85 57.0455L1350.38 58.4483ZM1361.58 54.0234L1362.15 55.4104C1364.02 54.6433 1365.87 53.8611 1367.73 53.0638L1367.14 51.6857L1366.55 50.3075C1364.7 51.0987 1362.86 51.875 1361.01 52.6364L1361.58 54.0234ZM1372.65 49.264L1373.27 50.6326C1375.11 49.8075 1376.94 48.967 1378.77 48.111L1378.13 46.7526L1377.5 45.3942C1375.69 46.2431 1373.87 47.0767 1372.04 47.8953L1372.65 49.264ZM1383.57 44.1508L1384.23 45.4981C1386.04 44.611 1387.85 43.7081 1389.64 42.7894L1388.96 41.4539L1388.28 40.1185C1386.5 41.029 1384.71 41.9239 1382.91 42.8034L1383.57 44.1508ZM1394.3 38.6605L1395.01 39.983C1396.79 39.0296 1398.56 38.06 1400.32 37.074L1399.58 35.7655L1398.85 34.457C1397.11 35.4333 1395.36 36.3936 1393.59 37.338L1394.3 38.6605ZM1404.81 32.7651L1405.57 34.0584C1407.32 33.0346 1409.04 31.9939 1410.76 30.9363L1409.97 29.6596L1409.19 28.3828C1407.49 29.429 1405.78 30.4586 1404.05 31.4718L1404.81 32.7651ZM1415.07 26.4379L1415.88 27.6967C1417.58 26.5954 1419.27 25.4767 1420.93 24.3403L1420.09 23.101L1419.24 21.8618C1417.6 22.9847 1415.93 24.0904 1414.25 25.1791L1415.07 26.4379ZM1425.02 19.6488L1425.89 20.8668C1427.54 19.6825 1429.17 18.4799 1430.78 17.2588L1429.87 16.0641L1428.96 14.8695C1427.38 16.0745 1425.77 17.2616 1424.14 18.4309L1425.02 19.6488ZM1434.62 12.3548L1435.56 13.524C1437.14 12.2553 1438.7 10.9674 1440.23 9.66019L1439.26 8.51858L1438.28 7.37698C1436.77 8.66498 1435.24 9.93443 1433.68 11.1855L1434.62 12.3548ZM1443.79 4.53534L1444.8 5.64669C1445.55 4.96788 1446.29 4.28408 1447.02 3.59528L1446 2.5L1444.98 1.40472C1444.25 2.08259 1443.52 2.75567 1442.78 3.42399L1443.79 4.53534Z" fill="#2E8942"/>
</svg>
