<svg width="81" height="48" viewBox="0 0 81 48" fill="none" xmlns="http://www.w3.org/2000/svg">
<g clip-path="url(#clip0_1_77067)">
<path d="M14.7155 10.0099H7.96987C6.13304 10.0099 5.0836 10.836 4.70916 12.7127L0.0997132 34.3372C-0.274094 36.2146 0.400274 37.04 2.23648 37.04H8.71938C13.8908 37.04 16.5491 33.0608 17.4514 28.6684C18.0886 25.8151 17.7507 23.5626 15.2029 22.5486C17.1143 21.8731 18.6126 19.658 19.2131 16.9924C20.075 12.7873 19.0629 10.0099 14.7155 10.0099ZM12.2049 28.781C11.5678 31.747 10.2184 33.248 8.34431 33.248H5.34628L7.14522 24.8011H10.0681C12.3924 24.8011 12.6538 26.6032 12.2049 28.781ZM14.1162 17.2948C13.5915 19.7724 12.3173 21.0109 10.2557 21.0109H7.96987L9.50678 13.8H12.167C13.7412 13.8013 14.6409 14.74 14.1162 17.2948Z" fill="#383838"/>
<path d="M35.0331 10.5001C33.6945 10.5001 32.6457 11.3332 32.2479 13.1447L30.9465 19.2677H30.8739C30.4035 17.7825 29.1015 16.9855 27.4743 16.9855C23.4962 16.9855 21.9764 20.608 21.1448 24.6297L20.0234 29.8823C19.1577 33.9052 19.1192 37.5284 23.0978 37.5284C24.7616 37.5284 26.3528 36.8035 27.5096 35.2455H27.5822C27.293 36.5498 27.98 37.5284 29.2827 37.5284C30.6207 37.5284 31.6695 36.6947 32.0673 34.8831L36.6603 13.1447C37.0588 11.3332 36.3711 10.5001 35.0331 10.5001ZM29.6439 25.3913L28.8861 29.0872C28.2718 31.8767 27.4035 33.8691 25.6658 33.8691C24.0386 33.8691 24.2192 31.9855 24.9081 28.7247L25.4486 26.1503C26.356 21.8402 27.0038 20.6472 28.4864 20.6472C29.5352 20.6472 30.5121 21.4417 29.6439 25.3913Z" fill="#383838"/>
<path d="M43.1666 16.2416C41.7774 16.2416 40.6933 17.105 40.2809 18.9824L36.9457 34.7876C36.5334 36.6643 37.245 37.5284 38.6316 37.5284C40.0183 37.5284 41.1056 36.6643 41.5179 34.7876L44.8531 18.9824C45.2655 17.105 44.5532 16.2416 43.1666 16.2416Z" fill="#383838"/>
<path d="M43.7386 15.4282C44.8144 15.4282 45.6866 14.5545 45.6866 13.4768C45.6866 12.3991 44.8144 11.5254 43.7386 11.5254C42.6628 11.5254 41.7906 12.3991 41.7906 13.4768C41.7906 14.5545 42.6628 15.4282 43.7386 15.4282Z" fill="#2E8942"/>
<path d="M37.4263 9.97953C36.9969 9.46717 36.3004 8.25776 36.3004 8.25776L50.4672 12.516C50.4672 12.516 25.955 1.4308 24.5444 0.840643C23.1338 0.250487 23.74 2.24361 25.3501 3.09816C26.9603 3.95272 28.4757 4.77438 29.1899 5.14948C29.904 5.52457 30.5342 5.65235 31.069 6.04199C31.6038 6.43163 35.3899 9.43934 35.9582 9.87326C36.5265 10.3072 38.4208 11.6444 38.7365 11.855C39.0522 12.0656 39.1905 12.194 39.6596 12.2794C39.6596 12.2794 37.8556 10.4925 37.4263 9.97953Z" fill="#EC1E24"/>
<path d="M61.6068 22.2482H57.409C56.0597 22.2482 55.0854 22.8864 54.7861 24.3887C54.5234 25.5519 54.9357 26.5279 56.3596 26.5279H58.4206L58.0834 28.0675C57.3718 31.3713 56.2857 33.551 54.0757 33.551C51.3025 33.551 51.2646 30.9981 52.6512 24.4285L53.4759 20.6738C54.1439 17.5004 54.8707 15.6648 55.6606 14.6236L51.2501 13.1112C49.847 15.0778 48.7963 17.9001 47.9666 21.8004L47.4046 24.5411C45.7553 32.2752 45.9056 37.5309 51.8247 37.5309C54.1104 37.5309 55.9845 36.5549 57.4836 34.6023H57.5581L57.4084 35.3158C57.1464 36.5549 57.5581 37.5296 58.9074 37.5296C60.3313 37.5296 61.0436 36.7409 61.3069 35.4644L63.5926 24.7277C63.9298 23.037 63.4051 22.2482 61.6068 22.2482Z" fill="#EC1E24"/>
<path d="M65.0924 17.0304C65.2408 16.6796 65.3536 16.3147 65.4289 15.9412C66.1039 12.7874 64.5677 9.37103 59.2081 9.37103C56.7455 9.37103 54.7704 9.90805 53.1545 11.1263L57.7785 13.3661C57.8913 13.356 58.0056 13.3509 58.1214 13.3509C59.3211 13.3509 59.9639 13.7754 60.2682 14.363C60.3097 14.44 60.3449 14.5201 60.3737 14.6027L60.3794 14.6173C60.4118 14.7133 60.4369 14.8116 60.4545 14.9114C60.4554 14.9163 60.4567 14.9212 60.4583 14.926C60.4988 15.1613 60.5032 15.4015 60.4716 15.6382C60.4394 15.8912 60.4236 16.1841 60.416 16.4516H60.4211C60.4116 16.6072 60.4116 16.7439 60.4109 16.883C60.4109 16.9887 60.4109 17.0848 60.4109 17.1575C60.4596 18.4176 60.9496 18.9432 62.2825 18.9432C62.9531 18.9432 63.5088 18.7806 63.9615 18.4827C63.9615 18.4827 63.9962 18.4561 64.0133 18.4422C64.4597 18.1323 64.8032 17.687 65.0551 17.1291C65.0715 17.0978 65.084 17.0647 65.0924 17.0304Z" fill="#EC1E24"/>
<path d="M75.4389 16.2416C72.4201 16.2416 70.4064 17.3169 69.0495 19.0115C68.418 18.6813 67.77 18.3573 67.1053 18.0393C66.7151 17.854 66.3154 17.6655 65.9094 17.4757C65.8948 17.508 65.8803 17.539 65.8702 17.556C65.6443 18.0665 65.3159 18.5249 64.9054 18.9027C65.4737 19.2253 65.9902 19.5308 66.4499 19.8142C66.9809 20.1425 67.4785 20.4682 67.9476 20.7902C67.4633 21.8023 67.1129 22.9332 66.8565 24.1256L65.6941 29.6444C64.757 33.9995 65.4314 37.5284 70.9034 37.5284C76.3753 37.5284 78.5481 33.9995 79.4851 29.6444L80.647 24.1256C81.5847 19.7706 80.9115 16.2416 75.4389 16.2416ZM73.4531 33.0601C72.9795 33.7097 72.4194 33.9242 71.6908 33.9242C70.1917 33.9242 69.78 33.0228 70.5668 29.2687L71.5771 24.426C71.615 24.2495 71.6529 24.0819 71.6914 23.92C75.1984 27.6387 74.8043 30.7919 73.4531 33.0601ZM75.9352 23.6138C75.0077 22.7681 73.9058 21.9338 72.6688 21.1229C73.2251 20.1501 73.8686 19.8458 74.6515 19.8458C75.8948 19.8458 76.4688 20.6131 75.9352 23.6138Z" fill="#EC1E24"/>
<path d="M59.5117 16.0234C59.5225 15.8419 59.5363 15.6711 59.5553 15.5212C59.5736 15.3894 59.5736 15.2557 59.5553 15.1239L59.5509 15.1088L59.5395 15.0341C59.5325 14.9965 59.5226 14.9595 59.5098 14.9234L59.4947 14.881C59.4859 14.8576 59.4755 14.8348 59.4637 14.8127C59.4103 14.7162 59.3657 14.615 59.3305 14.5104C56.7675 13.3889 54.1243 12.263 51.5803 11.1978L56.3956 6.05274L55.9069 5.76494L53.527 4.96035C53.527 4.96035 52.0551 5.9237 50.6401 6.7479C48.4067 8.04839 47.93 9.05982 43.4513 7.11224C39.5718 5.4259 30.8656 1.48267 30.8656 1.48267C30.8656 1.48267 25.3677 -0.624942 24.7268 0.190397L37.6838 5.63084C41.6365 7.42724 51.8562 12.1175 59.5117 16.0234Z" fill="#EC1E24"/>
<path d="M0.0252686 41.1598H5.74982V41.9637H3.36491V47.8615H2.41271V41.9637H0.0252686V41.1598Z" fill="#383838"/>
<path d="M6.3112 44.4724C6.40728 44.1711 6.55703 43.8897 6.7532 43.6418C6.95413 43.3894 7.21154 43.1879 7.50461 43.0536C7.83512 42.9121 8.19082 42.8391 8.55026 42.8391C8.90969 42.8391 9.26539 42.9121 9.59591 43.0536C9.88788 43.1874 10.145 43.387 10.3473 43.6368C10.5444 43.884 10.6942 44.1656 10.7893 44.4673C10.8877 44.7739 10.9375 45.094 10.9371 45.4161C10.9376 45.7361 10.8877 46.0541 10.7893 46.3586C10.6928 46.6597 10.5431 46.941 10.3473 47.1891C10.1463 47.4413 9.88893 47.6426 9.59591 47.7767C9.26539 47.9182 8.90969 47.9912 8.55026 47.9912C8.19082 47.9912 7.83512 47.9182 7.50461 47.7767C7.21158 47.6426 6.95417 47.4413 6.7532 47.1891C6.55716 46.9412 6.40742 46.6598 6.3112 46.3586C6.1142 45.7457 6.1142 45.0864 6.3112 44.4736V44.4724ZM7.12575 46.0119C7.17207 46.2245 7.24975 46.4289 7.35622 46.6185C7.46621 46.8131 7.62345 46.9767 7.81338 47.0942C7.97082 47.1928 8.1464 47.2587 8.32972 47.2881C8.51303 47.3175 8.70038 47.3098 8.88068 47.2655C9.06098 47.2212 9.23058 47.1411 9.37946 47.0299C9.52833 46.9188 9.65346 46.7789 9.74745 46.6185C9.85686 46.4303 9.93472 46.2254 9.97792 46.0119C10.0638 45.6185 10.0638 45.2111 9.97792 44.8177C9.93483 44.6042 9.85697 44.3993 9.74745 44.2111C9.54567 43.9006 9.23354 43.6786 8.87436 43.5901C8.51519 43.5017 8.13588 43.5534 7.81338 43.7348C7.62355 43.8527 7.46634 44.0165 7.35622 44.2111C7.24965 44.4007 7.17197 44.6051 7.12575 44.8177C7.03397 45.2105 7.03397 45.6192 7.12575 46.0119Z" fill="#383838"/>
<path d="M16.3755 47.8596V47.1505L16.3553 47.1315C16.1941 47.4021 15.9682 47.6282 15.698 47.7894C15.4484 47.9294 15.1242 47.9994 14.7256 47.9994C14.5252 47.9998 14.3255 47.9747 14.1314 47.9247C13.9388 47.8749 13.7574 47.7891 13.5966 47.6717C13.429 47.5493 13.2942 47.3875 13.2039 47.2005C13.0995 46.9773 13.0489 46.7327 13.0561 46.4863V42.9783H13.9205V46.2163C13.9205 46.5958 14.0089 46.8699 14.1857 47.0386C14.3625 47.2072 14.6046 47.2916 14.9119 47.2916C15.143 47.2986 15.3724 47.2489 15.5799 47.1467C15.756 47.0569 15.9064 46.9237 16.0169 46.7596C16.124 46.5998 16.2036 46.4232 16.2524 46.2371C16.3015 46.0514 16.3264 45.86 16.3263 45.6679V42.9808H17.1901V47.8608L16.3755 47.8596Z" fill="#383838"/>
<path d="M20.5777 47.8596H19.7133V42.9796H20.5284V43.7911H20.5467C20.7054 43.5143 20.9205 43.2742 21.1782 43.0865C21.4175 42.9208 21.7025 42.8343 21.9934 42.8391C22.0696 42.8381 22.1457 42.8475 22.2194 42.867V43.7165H21.8955C21.5027 43.7165 21.1851 43.843 20.9427 44.096C20.8236 44.2189 20.7302 44.3643 20.6679 44.5237C20.6056 44.6831 20.5755 44.8534 20.5796 45.0245L20.5777 47.8596Z" fill="#383838"/>
<path d="M26.8907 44.3673C26.8851 44.2726 26.8688 44.1788 26.8421 44.0878C26.8094 43.9903 26.7538 43.9022 26.6798 43.831C26.5736 43.7336 26.4456 43.6633 26.3066 43.626C26.1014 43.5678 25.8885 43.541 25.6752 43.5463C25.5767 43.5476 25.4784 43.5554 25.381 43.5697C25.2656 43.5864 25.1531 43.6194 25.0469 43.6678C24.938 43.716 24.8421 43.7895 24.7672 43.8822C24.6871 43.9841 24.6459 44.1112 24.651 44.2408C24.651 44.4306 24.7142 44.5615 24.8405 44.6419C24.9667 44.7222 25.2155 44.807 25.5818 44.8949L26.4462 45.0998C26.9757 45.2263 27.3487 45.388 27.5651 45.585C27.7815 45.7819 27.8894 46.0495 27.889 46.3877C27.8962 46.6151 27.8483 46.8409 27.7493 47.0457C27.6503 47.2505 27.5033 47.4282 27.3207 47.5635C26.9419 47.8558 26.4542 48.0019 25.8577 48.0019C25.3795 48.0019 24.9916 47.946 24.694 47.8343C24.3964 47.7225 24.1737 47.5779 24.0259 47.4004C23.8906 47.2445 23.7902 47.0614 23.7317 46.8633C23.6816 46.6775 23.6536 46.4864 23.6483 46.294H24.4831C24.4934 46.4123 24.5145 46.5294 24.5462 46.6438C24.5833 46.7595 24.6471 46.8649 24.7325 46.9513C24.8489 47.0673 24.9924 47.1525 25.1499 47.1992C25.375 47.267 25.6094 47.2984 25.8444 47.2922C26.1367 47.3023 26.4265 47.2347 26.6842 47.0961C26.7893 47.0415 26.8769 46.9583 26.9368 46.856C26.9967 46.7537 27.0264 46.6365 27.0227 46.518C27.0272 46.4345 27.009 46.3513 26.9701 46.2774C26.9312 46.2034 26.873 46.1414 26.8017 46.098C26.6543 46.0043 26.3877 45.9109 26.0017 45.8178L25.0002 45.5843C24.6214 45.4975 24.3284 45.3592 24.1213 45.1694C23.9141 44.9796 23.811 44.723 23.8119 44.3996C23.8065 44.1613 23.8605 43.9254 23.9691 43.7133C24.0746 43.5171 24.222 43.3466 24.401 43.2142C24.7546 42.9654 25.2063 42.841 25.756 42.841C26.1816 42.841 26.5285 42.9032 26.7966 43.0276C27.0299 43.1256 27.2357 43.2794 27.3959 43.4755C27.5133 43.6238 27.6016 43.7932 27.656 43.9745C27.6936 44.1036 27.7148 44.2368 27.7192 44.3711L26.8907 44.3673Z" fill="#383838"/>
<path d="M39.5276 47.8596H38.4087L37.7507 47.0942C37.5007 47.3675 37.205 47.5948 36.8768 47.766C36.5687 47.9216 36.1759 47.9994 35.6986 47.9994C35.2923 47.9994 34.9503 47.9361 34.6725 47.8096C34.4232 47.7069 34.2024 47.5452 34.0291 47.3384C33.8887 47.1687 33.7816 46.9741 33.7133 46.7647C33.6584 46.5958 33.6287 46.4197 33.6249 46.2422C33.6217 46.0293 33.6448 45.8168 33.6938 45.6097C33.7409 45.4271 33.8225 45.2553 33.9343 45.1036C34.0702 44.9233 34.2324 44.7644 34.4155 44.6324C34.6689 44.4469 34.9364 44.2816 35.2155 44.1377C34.9276 43.8004 34.7312 43.536 34.6264 43.3445C34.4853 43.0601 34.4374 42.7383 34.4894 42.425C34.5414 42.1117 34.6908 41.8228 34.9162 41.5994C35.2134 41.3071 35.6207 41.161 36.138 41.161C36.6554 41.161 37.0483 41.2979 37.3169 41.5715C37.4458 41.6977 37.5479 41.8488 37.617 42.0155C37.6862 42.1823 37.7209 42.3613 37.7191 42.5419C37.7224 42.7496 37.684 42.9559 37.6061 43.1485C37.5346 43.3232 37.4333 43.4841 37.3068 43.6241C37.1944 43.7503 37.0694 43.8645 36.9336 43.9651C36.8073 44.0553 36.6503 44.1626 36.4626 44.287L36.4525 44.2959L37.7387 45.7507C37.803 45.5888 37.8588 45.4237 37.906 45.2561C37.9382 45.1296 37.978 44.948 38.0235 44.7058H38.8387C38.813 44.9835 38.7553 45.2573 38.6669 45.5217C38.5655 45.8318 38.4322 46.1305 38.2691 46.413L39.5276 47.8596ZM35.6986 44.6969C35.2595 44.9647 34.9486 45.1966 34.7659 45.3927C34.5832 45.5888 34.4915 45.8515 34.4906 46.1808C34.4856 46.3611 34.5316 46.5392 34.6232 46.6945C34.7084 46.8338 34.8241 46.952 34.9617 47.0398C35.0926 47.1231 35.2349 47.187 35.3841 47.2296C35.5051 47.2673 35.6306 47.2886 35.7573 47.2928C36.3988 47.2928 36.9094 47.044 37.2891 46.5464L35.6986 44.6969ZM36.6413 43.2421C36.8028 43.0717 36.8908 42.8445 36.8863 42.6095C36.8863 42.3426 36.808 42.1522 36.6508 42.0403C36.4996 41.9303 36.3173 41.8716 36.1305 41.8726C35.986 41.8677 35.8421 41.8931 35.708 41.9473C35.6093 41.9883 35.5225 42.0536 35.4555 42.137C35.401 42.2062 35.3608 42.2855 35.3374 42.3704C35.3183 42.4451 35.3086 42.5218 35.3083 42.5988C35.316 42.8149 35.3896 43.0236 35.5192 43.1965C35.6606 43.4031 35.8236 43.5939 36.0054 43.7658C36.2365 43.6154 36.4498 43.4393 36.6413 43.2408V43.2421Z" fill="#383838"/>
<path d="M44.3391 41.1598H50.0637V41.9637H47.6775V47.8615H46.7253V41.9637H44.3391V41.1598Z" fill="#383838"/>
<path d="M51.7527 47.8596H50.8883V42.9796H51.7035V43.7911H51.7231C51.8817 43.5143 52.0969 43.2742 52.3545 43.0865C52.5937 42.9205 52.8788 42.834 53.1697 42.8391C53.2457 42.8381 53.3216 42.8475 53.3951 42.867V43.7165H53.0655C52.6727 43.7165 52.3553 43.843 52.1133 44.096C51.9941 44.2188 51.9007 44.3642 51.8383 44.5236C51.776 44.6831 51.746 44.8534 51.7502 45.0246L51.7527 47.8596Z" fill="#383838"/>
<path d="M55.0229 44.4629C55.0423 43.897 55.2353 43.4848 55.6019 43.2263C55.9686 42.9678 56.4826 42.8387 57.1439 42.8391C57.3199 42.8415 57.4955 42.8571 57.6692 42.8859C57.882 42.9208 58.0897 42.982 58.2874 43.0681C58.4999 43.1578 58.6858 43.3007 58.8273 43.4831C58.975 43.6699 59.0487 43.9094 59.0483 44.2016V47.0107C59.0483 47.2005 59.143 47.2998 59.3331 47.2998C59.4288 47.2951 59.5241 47.2827 59.6178 47.2625V47.8596C59.5919 47.8659 59.5547 47.8748 59.5099 47.8874C59.3925 47.9257 59.2702 47.947 59.1468 47.9507C58.7995 47.9507 58.5654 47.8838 58.4446 47.7501C58.3155 47.5968 58.2413 47.4047 58.2337 47.2043C58.012 47.4337 57.7549 47.6259 57.4722 47.7736C57.1881 47.9228 56.8233 47.9975 56.378 47.9975C55.9061 47.9975 55.5198 47.8667 55.2193 47.6053C55.0725 47.4808 54.9556 47.3248 54.8773 47.1488C54.7991 46.9728 54.7614 46.7814 54.7672 46.5888C54.7679 46.4457 54.7844 46.3032 54.8164 46.1638C54.8569 46.0008 54.9286 45.8472 55.0273 45.7115C55.1548 45.5388 55.3192 45.3968 55.5085 45.2959C55.7634 45.1623 56.0426 45.0815 56.3293 45.0581L57.7532 44.8905C57.8751 44.8845 57.9913 44.8367 58.0822 44.7551C58.1639 44.6771 58.2047 44.5295 58.2047 44.3123C58.2047 43.7835 57.802 43.5191 56.9968 43.5191C56.8035 43.5135 56.6109 43.5435 56.4285 43.6077C56.2955 43.655 56.1758 43.7335 56.0793 43.8366C56.0029 43.9211 55.9429 44.0192 55.9025 44.1257C55.8641 44.2348 55.8362 44.3472 55.8191 44.4616L55.0229 44.4629ZM58.1845 45.368C58.062 45.4415 57.9272 45.4921 57.7867 45.5173C57.6002 45.5595 57.2582 45.6124 56.7606 45.6761C56.6301 45.6942 56.5038 45.7174 56.3817 45.7456C56.2611 45.7737 56.1443 45.8162 56.0338 45.8722C55.9253 45.9253 55.8323 46.0054 55.7636 46.1049C55.6924 46.2128 55.6565 46.3401 55.6606 46.4693C55.6606 46.7429 55.7375 46.9538 55.8911 47.1018C56.0448 47.2498 56.2788 47.3228 56.5933 47.3207C56.7913 47.3206 56.9882 47.2908 57.1773 47.2321C57.3605 47.1779 57.5344 47.0962 57.6932 46.9898C57.8362 46.8942 57.958 46.7702 58.0513 46.6255C58.1382 46.4908 58.1843 46.3337 58.1838 46.1732L58.1845 45.368Z" fill="#383838"/>
<path d="M64.6743 42.9796H65.617L63.6596 47.8596H62.7364L60.8611 42.9796H61.8625L63.198 46.9544H63.2176L64.6743 42.9796Z" fill="#383838"/>
<path d="M71.557 46.3282C71.5235 46.5408 71.4468 46.7443 71.3315 46.9259C71.2507 47.0717 71.1534 47.2078 71.0417 47.3314C70.9256 47.4603 70.7916 47.5719 70.6439 47.6629C70.4729 47.7658 70.2898 47.8474 70.099 47.9057C69.8995 47.9677 69.6164 47.9987 69.2497 47.9987C68.5425 47.9987 67.9829 47.7717 67.5707 47.3175C67.1586 46.8633 66.9524 46.2755 66.9519 45.554C66.9486 45.1926 66.9982 44.8326 67.0991 44.4856C67.1917 44.1698 67.3472 43.8761 67.5562 43.6222C67.7656 43.371 68.0313 43.1729 68.3316 43.0441C68.675 42.9005 69.0445 42.8305 69.4164 42.8385C70.1434 42.8385 70.6934 43.0905 71.0663 43.5944C71.4393 44.0983 71.6258 44.7941 71.6258 45.6818H67.8751C67.8751 46.1979 68.0014 46.5945 68.2539 46.8716C68.5065 47.1486 68.8778 47.2869 69.3678 47.2865C69.7199 47.2927 70.0621 47.1699 70.3301 46.9411C70.5528 46.7417 70.674 46.5363 70.6938 46.325L71.557 46.3282ZM70.7323 45.0315C70.7217 44.8397 70.6871 44.6499 70.6294 44.4666C70.5763 44.3006 70.493 44.1457 70.3838 44.01C70.2679 43.8706 70.1195 43.762 69.9519 43.6937C69.7444 43.6106 69.5223 43.5708 69.299 43.5767C69.1095 43.5767 68.9221 43.6165 68.749 43.6937C68.5754 43.7693 68.4185 43.8788 68.2874 44.0156C68.1568 44.1517 68.0534 44.3117 67.9831 44.4869C67.9119 44.6601 67.8752 44.8455 67.8751 45.0328L70.7323 45.0315Z" fill="#383838"/>
<path d="M74.6497 47.8596H73.7859V41.1598H74.6497V47.8596Z" fill="#383838"/>
<path d="M79.972 44.3673C79.9659 44.2726 79.9494 44.1789 79.9228 44.0878C79.8901 43.9903 79.8345 43.9022 79.7605 43.831C79.6543 43.7336 79.5263 43.6633 79.3873 43.626C79.1821 43.5678 78.9692 43.541 78.7559 43.5463C78.6574 43.5476 78.5591 43.5554 78.4617 43.5697C78.3463 43.5864 78.2338 43.6194 78.1276 43.6678C78.0187 43.716 77.9228 43.7895 77.8479 43.8822C77.7701 43.9836 77.7301 44.1092 77.7349 44.237C77.7349 44.4268 77.798 44.5577 77.9243 44.6381C78.0506 44.7184 78.2988 44.8032 78.665 44.8911L79.5294 45.096C80.0598 45.2225 80.433 45.3843 80.6489 45.5812C80.8649 45.7781 80.9729 46.0457 80.9729 46.3839C80.9801 46.6113 80.9321 46.8371 80.8332 47.0419C80.7342 47.2467 80.5871 47.4244 80.4046 47.5598C80.0257 47.852 79.538 47.9981 78.9416 47.9981C78.4634 47.9981 78.0754 47.9422 77.7778 47.8305C77.4802 47.7187 77.2577 47.5741 77.1104 47.3966C76.9749 47.2407 76.8743 47.0576 76.8155 46.8595C76.7658 46.6737 76.7378 46.4826 76.7322 46.2903H77.565C77.5754 46.4085 77.5965 46.5256 77.6282 46.6401C77.6665 46.756 77.7313 46.8612 77.8176 46.9475C77.9342 47.0633 78.0776 47.1485 78.235 47.1954C78.4601 47.2632 78.6946 47.2946 78.9296 47.2884C79.2219 47.2986 79.5117 47.2309 79.7694 47.0923C79.8745 47.0377 79.962 46.9545 80.0219 46.8522C80.0818 46.7499 80.1116 46.6327 80.1078 46.5142C80.1123 46.4307 80.0941 46.3475 80.0552 46.2736C80.0163 46.1996 79.9581 46.1376 79.8868 46.0942C79.7399 46.0006 79.4732 45.9072 79.0868 45.814L78.0853 45.5806C77.7065 45.4937 77.4135 45.3554 77.2064 45.1656C76.9993 44.9758 76.8961 44.7192 76.897 44.3958C76.8916 44.1575 76.9456 43.9216 77.0542 43.7095C77.1597 43.5133 77.3072 43.3429 77.4861 43.2104C77.8397 42.9616 78.2914 42.8372 78.8412 42.8372C79.2667 42.8372 79.6138 42.8994 79.8824 43.0238C80.1156 43.1216 80.3212 43.2754 80.481 43.4717C80.5987 43.6199 80.687 43.7893 80.7411 43.9707C80.7787 44.0998 80.7999 44.233 80.8043 44.3673H79.972Z" fill="#383838"/>
</g>
<defs>
<clipPath id="clip0_1_77067">
<rect width="81" height="48" fill="white"/>
</clipPath>
</defs>
</svg>
