<svg width="144" height="126" viewBox="0 0 144 126" fill="none" xmlns="http://www.w3.org/2000/svg">
<path d="M0 68.1406C4.92375 63.3358 9.6525 58.3098 14.8162 53.7788C22.3837 47.1362 30.8962 41.84 40.08 37.6692C40.4175 37.5154 40.7663 37.3841 41.115 37.2491C41.1413 37.2378 41.1937 37.2941 41.1525 37.2678C31.62 52.541 30.7688 68.0431 41.8275 82.5886C53.295 97.6743 68.8875 100.821 86.4 95.1688C86.9625 98.0531 87.5512 101.065 88.1888 104.332C86.0325 104.715 83.67 105.213 81.2812 105.543C64.5675 107.861 49.125 103.796 34.47 96.0165C21.7125 89.2425 10.725 80.2031 1.09875 69.4684C0.76125 69.0933 0.3675 68.7707 0 68.4219C0 68.3281 0 68.2344 0 68.1406Z" fill="#2E8942"/>
<path d="M144 68.4218C142.961 69.5396 141.904 70.6423 140.884 71.7825C136.65 76.501 132.049 80.8294 126.814 84.9966C125.565 83.6838 124.331 82.3635 123.079 81.062C120.109 77.9713 116.546 75.8934 112.35 75.012C110.678 74.6594 108.953 74.5731 107.111 74.3481C109.553 68.163 110.486 61.7904 109.684 55.2003C108.885 48.6552 106.534 42.7177 102.81 37.1777C103.388 37.4328 103.969 37.6841 104.539 37.9504C119.01 44.7131 131.355 54.3151 142.125 66.0363C142.714 66.6777 143.374 67.2553 144 67.8592C144 68.0467 144 68.2343 144 68.4218Z" fill="#2E8942"/>
<path d="M137.411 107.378C131.4 113.39 125.509 119.283 119.572 125.224C119.67 125.258 119.618 125.254 119.588 125.228C112.429 118.067 105.15 111.023 98.1713 103.698C94.845 100.206 94.3612 95.7652 95.9625 91.2079C96.2625 90.3565 96.1575 89.8764 95.5312 89.2725C93.5813 87.3896 91.695 85.4392 89.7337 83.4663C82.2487 88.7549 74.1037 90.5328 65.2612 88.5224C58.1287 86.8983 52.3837 83.0275 48.0862 77.1125C39.5437 65.3462 40.8563 49.1166 51.12 38.8994C61.3688 28.6935 77.5125 27.4633 89.25 35.7788C100.916 44.0455 106.631 62.5632 95.7075 77.6451C97.725 79.6292 99.7388 81.6547 101.816 83.6088C102.09 83.8676 102.75 83.9577 103.125 83.8301C108.255 82.0673 112.879 82.8924 116.76 86.6995C123.619 93.4322 130.369 100.27 137.164 107.07C137.287 107.194 137.389 107.348 137.411 107.378ZM72.0637 72.4202C79.02 72.3865 84.6487 66.734 84.6487 59.7913C84.6487 52.8148 78.8587 47.0499 71.925 47.1211C64.9237 47.1887 59.2912 52.9236 59.3475 59.9301C59.4 66.8541 65.1 72.454 72.0637 72.4202Z" fill="#2E8942"/>
<path d="M103.815 23.7424C101.078 22.8122 98.5238 21.942 95.8313 21.0268C97.6313 15.7044 99.4088 10.4608 101.231 5.07471C103.901 5.9749 106.489 6.84883 109.219 7.77153C107.411 13.1089 105.638 18.3525 103.815 23.7424Z" fill="#2E8942"/>
<path d="M13.2789 18.2661C16.3239 23.0409 19.2864 27.6843 22.3501 32.4854C19.9914 33.9969 17.6926 35.471 15.2551 37.0351C12.2364 32.3053 9.25136 27.6356 6.17261 22.8121C8.52011 21.3118 10.8226 19.8377 13.2789 18.2661Z" fill="#2E8942"/>
<path d="M137.824 22.7858C134.76 27.5869 131.779 32.2641 128.749 37.0126C126.367 35.4935 124.091 34.0382 121.639 32.4779C124.665 27.7331 127.661 23.0371 130.71 18.2549C133.099 19.7702 135.371 21.2218 137.824 22.7858Z" fill="#2E8942"/>
<path d="M67.8638 0.75C70.65 0.75 73.3463 0.75 76.1288 0.75C76.1288 6.32367 76.1288 11.8336 76.1288 17.4523C73.4063 17.4523 70.68 17.4523 67.8638 17.4523C67.8638 11.9349 67.8638 6.4212 67.8638 0.75Z" fill="#2E8942"/>
<path d="M48.1913 20.9892C45.4988 21.9044 42.9188 22.7859 40.2113 23.7085C38.3963 18.3599 36.6188 13.1126 34.8 7.75268C37.47 6.84499 40.0575 5.96355 42.7838 5.03711C44.595 10.382 46.3725 15.6218 48.1913 20.9892Z" fill="#2E8942"/>
<path d="M71.9325 63.9771C69.6225 63.9471 67.77 62.0642 67.785 59.7612C67.8 57.4957 69.7313 55.5678 71.9888 55.5603C74.2988 55.5528 76.2675 57.5707 76.2113 59.8887C76.155 62.1955 74.2575 64.0071 71.9325 63.9771Z" fill="#2E8942"/>
</svg>
