<svg width="80" height="80" viewBox="0 0 80 80" fill="none" xmlns="http://www.w3.org/2000/svg">
<rect width="80" height="80" rx="4" transform="matrix(-1 0 0 1 80 0)" fill="#E4F0FF"/>
<path d="M44.8386 52.2404V55.1972H45.3304C48.2283 55.1972 51.1252 55.207 54.0231 55.1885C54.5759 55.1852 54.9717 55.3956 55.2584 55.8318C55.9475 56.8817 56.2407 58.0592 56.3356 59.2945C56.3628 59.6466 56.1524 59.8156 55.8166 59.8407C55.7087 59.8494 55.5986 59.8429 55.4906 59.8429C45.3293 59.8429 35.1679 59.8429 25.0055 59.8429C24.1943 59.8429 24.0624 59.7142 24.1648 58.9074C24.2902 57.9175 24.5486 56.9624 25.0447 56.0847C25.3838 55.484 25.8428 55.17 26.5918 55.1809C29.2848 55.219 31.9789 55.1961 34.6718 55.1961H35.1461V52.2393H34.6718C31.026 52.2393 27.3801 52.2393 23.7353 52.2393C21.425 52.2404 20 50.811 20 48.4964C20 40.5232 20 32.55 20.0011 24.5758C20.0022 22.8662 21.0216 21.5088 22.609 21.1174C22.935 21.0367 23.2806 21.0051 23.6175 21.0051C34.541 20.9997 45.4645 20.9986 56.3879 21.0018C58.5336 21.0018 59.9978 22.4759 59.9978 24.6237C60 32.6242 60 40.6246 59.9978 48.625C59.9978 50.7674 58.526 52.2371 56.3792 52.2393C52.7061 52.2437 49.034 52.2404 45.3609 52.2404C45.1995 52.2404 45.0382 52.2404 44.8397 52.2404H44.8386ZM39.9826 51.2461C45.4241 51.2461 50.8657 51.2472 56.3072 51.2461C58.0201 51.2461 59.0111 50.2452 59.0111 48.5258C59.0111 40.593 59.0111 32.6601 59.0111 24.7273C59.0111 22.9872 58.0179 21.9929 56.2756 21.9929C45.4198 21.9929 34.5639 21.9918 23.708 21.9929C21.9745 21.9929 20.9845 22.9949 20.9845 24.7382C20.9845 29.7317 20.9845 34.7262 20.9845 39.7197C20.9845 42.6994 20.9867 45.6791 20.9834 48.6599C20.9834 49.373 21.1928 49.9966 21.6954 50.5112C22.246 51.0749 22.9317 51.2515 23.6993 51.2515C29.1278 51.245 34.5552 51.2482 39.9836 51.2482L39.9826 51.2461ZM25.1734 58.8289H55.2867C55.1919 58.0363 54.9335 57.3309 54.6217 56.6353C54.469 56.2951 54.2586 56.1719 53.8694 56.173C44.783 56.1861 35.6967 56.1828 26.6103 56.1828C26.5427 56.1828 26.4653 56.1621 26.4075 56.1872C26.2582 56.2526 26.0565 56.3006 25.9845 56.4205C25.5517 57.151 25.3107 57.9523 25.1723 58.8289H25.1734ZM43.8105 55.1885V52.2742H36.1939V55.1885H43.8105Z" fill="#1A2E46"/>
<path d="M39.9945 24.7915C45.5854 24.7915 51.1753 24.7915 56.7662 24.7915C57.5577 24.7915 57.633 24.8656 57.633 25.6517C57.633 32.6317 57.633 39.6105 57.633 46.5905C57.633 47.3166 57.5185 47.4289 56.7738 47.4289C45.593 47.4289 34.4112 47.4289 23.2304 47.4289C22.4683 47.4289 22.3647 47.3242 22.3647 46.5578C22.3647 39.5778 22.3647 32.599 22.3647 25.619C22.3647 24.8874 22.4585 24.7915 23.1814 24.7915C28.7854 24.7915 34.3894 24.7915 39.9934 24.7915H39.9945ZM56.6343 25.8153H23.3776V46.4008H56.6343V25.8153Z" fill="#1A2E46"/>
<path d="M40.0917 50.5688C39.3678 50.5688 38.791 50.0073 38.7823 49.2921C38.7736 48.5877 39.3602 47.9968 40.071 47.9946C40.8059 47.9925 41.3924 48.5834 41.3804 49.3128C41.3685 49.9996 40.7852 50.5688 40.0928 50.5688H40.0917ZM40.0634 49.7042C40.2106 49.5112 40.361 49.4 40.3676 49.2801C40.373 49.1874 40.1811 48.9922 40.1081 49.0064C39.9838 49.0304 39.829 49.1656 39.7919 49.2866C39.7668 49.3662 39.9249 49.5025 40.0634 49.7042Z" fill="#1A2E46"/>
<path d="M34.5777 33.2413C35.18 33.049 35.4811 33.2819 35.4478 33.8833C35.4451 33.93 35.4526 33.9842 35.475 34.0241C35.6289 34.3052 35.5509 34.5361 35.3509 34.7629C35.2959 34.8252 35.2722 34.9641 35.3014 35.0426C35.5069 35.5959 35.7239 36.1458 35.9511 36.6909C36.0386 36.9002 36.0121 37.062 35.8439 37.2123C35.7246 37.3193 35.616 37.4385 35.5014 37.5516C35.2267 37.8232 35.0823 37.8191 34.8381 37.5252C33.9022 36.4011 32.9676 35.2763 32.033 34.1514C31.974 34.0803 31.9143 34.0099 31.8404 33.9205C31.3338 34.358 30.8373 34.7866 30.3415 35.2153C29.8491 35.6413 29.3622 36.0747 28.8617 36.4905C28.7253 36.6036 28.7131 36.7017 28.764 36.8568C28.9064 37.2895 29.0265 37.7297 29.1689 38.1618C29.2333 38.3568 29.1879 38.4977 29.0482 38.6399C28.5822 39.1159 28.5551 39.1193 28.0885 38.6541C27.1247 37.6918 26.161 36.7302 25.1979 35.7679C24.9246 35.495 24.9456 35.4076 25.1918 35.1124C25.44 34.8158 25.6964 34.7501 26.0565 34.8923C26.4241 35.0379 26.8107 35.1388 27.1946 35.2404C27.276 35.262 27.415 35.2309 27.4672 35.1713C28.3387 34.1819 29.2008 33.1837 30.0831 32.1666C29.7088 31.8551 29.3412 31.549 28.9729 31.2436C28.1394 30.5528 27.3051 29.8628 26.4723 29.1714C26.1752 28.9249 26.1664 28.782 26.4424 28.5118C27.1118 27.8569 26.8867 27.9064 27.7494 28.2375C28.1434 28.3885 28.5368 28.5422 28.9268 28.7054C29.059 28.7603 29.1533 28.7671 29.2618 28.6513C29.4626 28.4373 29.7033 28.3838 29.9739 28.5314C30.0146 28.5538 30.0682 28.5646 30.1143 28.5619C30.7254 28.5321 30.9567 28.826 30.762 29.4267C31.1568 29.5838 31.5522 29.7476 31.9537 29.8932C32.0025 29.9108 32.0954 29.8377 32.1551 29.7896C32.5749 29.4517 32.971 29.0793 33.4173 28.7799C33.6743 28.6073 34.0019 28.4969 34.3112 28.4535C35.2078 28.3289 35.7341 28.9296 35.5387 29.8154C35.3875 30.4993 35.0185 31.0749 34.5126 31.5293C34.1348 31.8686 34.0534 32.1659 34.3145 32.5932C34.4312 32.7842 34.4882 33.0117 34.5784 33.2386L34.5777 33.2413ZM26.9823 36.678C27.1037 36.8026 27.2034 36.9049 27.3099 37.0133C27.3716 36.9658 27.4272 36.9279 27.4774 36.8846C29.5277 35.109 31.5854 33.3415 33.6207 31.549C34.0148 31.2016 34.3505 30.7749 34.6537 30.3436C34.8198 30.1072 34.9019 29.791 34.95 29.4991C35.0009 29.189 34.8137 29.0163 34.4956 29.0522C34.2745 29.0772 34.0473 29.1436 33.8466 29.2404C33.2491 29.5289 32.7892 29.9901 32.3606 30.4838C31.1852 31.8354 30.0112 33.1878 28.8366 34.5401C28.2221 35.2478 27.6083 35.9562 26.9823 36.678ZM31.5861 30.4357C31.5494 30.4126 31.5298 30.3957 31.5067 30.3869C30.096 29.8269 28.6853 29.2655 27.2712 28.7136C27.2054 28.6878 27.1078 28.7461 26.9599 28.7806C28.1733 29.7862 29.3215 30.7377 30.486 31.7027C30.8549 31.2774 31.2124 30.8664 31.5861 30.435V30.4357ZM32.3029 33.5169C33.268 34.6776 34.2203 35.8234 35.1738 36.9706C35.3515 36.8934 35.3244 36.7864 35.2722 36.655C34.7323 35.302 34.1972 33.9469 33.6594 32.5932C33.6384 32.5411 33.6072 32.493 33.5685 32.4212C33.1412 32.791 32.7295 33.1472 32.3029 33.5169ZM25.8849 35.4957C26.106 35.7218 26.338 35.9589 26.5774 36.204C26.6778 36.0882 26.7897 35.9602 26.9226 35.8072C26.5354 35.6914 26.1942 35.5884 25.8843 35.4957H25.8849ZM28.5266 38.176C28.4106 37.7981 28.3062 37.4548 28.1902 37.0769C28.0288 37.2212 27.902 37.3349 27.7921 37.4331C28.0383 37.6823 28.2662 37.9126 28.5266 38.176Z" fill="#1A2E46"/>
<path d="M49.1617 31.8034C47.7617 31.8034 46.3629 31.8045 44.963 31.8034C44.4255 31.8034 44.2827 31.6649 44.2794 31.1307C44.274 30.2334 44.2729 29.3372 44.2794 28.4399C44.2838 27.9362 44.4408 27.7868 44.9456 27.7868C47.7585 27.7846 50.5703 27.7846 53.3832 27.7868C53.8858 27.7868 54.0395 27.9416 54.0417 28.442C54.045 29.3524 54.0461 30.2628 54.0417 31.1732C54.0395 31.6496 53.8869 31.8012 53.4017 31.8023C51.9887 31.8055 50.5757 31.8034 49.1628 31.8034H49.1617ZM45.3021 30.785H53.0354V28.8029H45.3021V30.785Z" fill="#1A2E46"/>
<path d="M48.8976 34.3809C50.1601 34.3809 51.4237 34.3776 52.6863 34.383C53.0842 34.3841 53.3186 34.5738 53.2957 34.878C53.2674 35.252 53.0166 35.3763 52.6754 35.3741C52.5936 35.3741 52.5129 35.3741 52.4312 35.3741C51.4532 35.3741 50.4752 35.3741 49.4972 35.3741C48.0984 35.3741 46.6996 35.3741 45.3008 35.3741C45.1917 35.3741 45.0827 35.3806 44.9748 35.3697C44.6629 35.337 44.4602 35.1811 44.4743 34.8475C44.4874 34.5357 44.6848 34.3885 44.9846 34.3852C45.5275 34.3787 46.0705 34.3819 46.6145 34.3809C47.3756 34.3809 48.1355 34.3809 48.8965 34.3809H48.8976Z" fill="#1A2E46"/>
<path d="M25.498 44.5052V40.7719H27.322C27.7914 40.7719 28.1434 40.8607 28.378 41.0385C28.6163 41.2163 28.7354 41.451 28.7354 41.7425C28.7354 41.9381 28.6874 42.1087 28.5914 42.2545C28.4954 42.3967 28.3638 42.507 28.1967 42.5852C28.0296 42.6634 27.8376 42.7025 27.6207 42.7025L27.722 42.4839C27.9567 42.4839 28.1647 42.523 28.346 42.6012C28.5274 42.6759 28.6678 42.7879 28.7674 42.9372C28.8705 43.0865 28.922 43.2696 28.922 43.4865C28.922 43.8065 28.7958 44.0572 28.5434 44.2385C28.2909 44.4163 27.9194 44.5052 27.4287 44.5052H25.498ZM26.3567 43.8545H27.3647C27.5887 43.8545 27.7576 43.819 27.8714 43.7479C27.9887 43.6732 28.0474 43.5559 28.0474 43.3959C28.0474 43.2394 27.9887 43.1239 27.8714 43.0492C27.7576 42.971 27.5887 42.9319 27.3647 42.9319H26.2927V42.3025H27.2154C27.4252 42.3025 27.5852 42.267 27.6954 42.1959C27.8092 42.1212 27.866 42.0092 27.866 41.8599C27.866 41.7141 27.8092 41.6056 27.6954 41.5345C27.5852 41.4599 27.4252 41.4225 27.2154 41.4225H26.3567V43.8545Z" fill="#1A2E46"/>
<path d="M30.8828 44.5479C30.5771 44.5479 30.3051 44.4839 30.0668 44.3559C29.8322 44.2279 29.6455 44.0536 29.5068 43.8332C29.3717 43.6092 29.3042 43.355 29.3042 43.0705C29.3042 42.7825 29.3717 42.5283 29.5068 42.3079C29.6455 42.0839 29.8322 41.9096 30.0668 41.7852C30.3051 41.6572 30.5771 41.5932 30.8828 41.5932C31.1851 41.5932 31.4553 41.6572 31.6935 41.7852C31.9317 41.9096 32.1184 42.0821 32.2535 42.3025C32.3886 42.523 32.4562 42.779 32.4562 43.0705C32.4562 43.355 32.3886 43.6092 32.2535 43.8332C32.1184 44.0536 31.9317 44.2279 31.6935 44.3559C31.4553 44.4839 31.1851 44.5479 30.8828 44.5479ZM30.8828 43.8652C31.0215 43.8652 31.1459 43.8332 31.2562 43.7692C31.3664 43.7052 31.4535 43.6145 31.5175 43.4972C31.5815 43.3763 31.6135 43.2341 31.6135 43.0705C31.6135 42.9034 31.5815 42.7612 31.5175 42.6439C31.4535 42.5265 31.3664 42.4359 31.2562 42.3719C31.1459 42.3079 31.0215 42.2759 30.8828 42.2759C30.7442 42.2759 30.6197 42.3079 30.5095 42.3719C30.3993 42.4359 30.3104 42.5265 30.2428 42.6439C30.1788 42.7612 30.1468 42.9034 30.1468 43.0705C30.1468 43.2341 30.1788 43.3763 30.2428 43.4972C30.3104 43.6145 30.3993 43.7052 30.5095 43.7692C30.6197 43.8332 30.7442 43.8652 30.8828 43.8652Z" fill="#1A2E46"/>
<path d="M34.3776 44.5479C34.0719 44.5479 33.7999 44.4839 33.5616 44.3559C33.327 44.2279 33.1403 44.0536 33.0016 43.8332C32.8665 43.6092 32.799 43.355 32.799 43.0705C32.799 42.7825 32.8665 42.5283 33.0016 42.3079C33.1403 42.0839 33.327 41.9096 33.5616 41.7852C33.7999 41.6572 34.0719 41.5932 34.3776 41.5932C34.6799 41.5932 34.9501 41.6572 35.1883 41.7852C35.4265 41.9096 35.6132 42.0821 35.7483 42.3025C35.8834 42.523 35.951 42.779 35.951 43.0705C35.951 43.355 35.8834 43.6092 35.7483 43.8332C35.6132 44.0536 35.4265 44.2279 35.1883 44.3559C34.9501 44.4839 34.6799 44.5479 34.3776 44.5479ZM34.3776 43.8652C34.5163 43.8652 34.6407 43.8332 34.751 43.7692C34.8612 43.7052 34.9483 43.6145 35.0123 43.4972C35.0763 43.3763 35.1083 43.2341 35.1083 43.0705C35.1083 42.9034 35.0763 42.7612 35.0123 42.6439C34.9483 42.5265 34.8612 42.4359 34.751 42.3719C34.6407 42.3079 34.5163 42.2759 34.3776 42.2759C34.239 42.2759 34.1145 42.3079 34.0043 42.3719C33.8941 42.4359 33.8052 42.5265 33.7376 42.6439C33.6736 42.7612 33.6416 42.9034 33.6416 43.0705C33.6416 43.2341 33.6736 43.3763 33.7376 43.4972C33.8052 43.6145 33.8941 43.7052 34.0043 43.7692C34.1145 43.8332 34.239 43.8652 34.3776 43.8652Z" fill="#1A2E46"/>
<path d="M37.1951 43.9185L37.2164 42.9052L38.5551 41.6359H39.5471L38.2618 42.9425L37.8298 43.2945L37.1951 43.9185ZM36.5071 44.5052V40.5479H37.3391V44.5052H36.5071ZM38.6458 44.5052L37.6751 43.2999L38.1978 42.6545L39.6538 44.5052H38.6458Z" fill="#1A2E46"/>
<path d="M41.597 44.5052V40.7719H42.3117L44.5143 43.4599H44.1677V40.7719H45.021V44.5052H44.3117L42.1037 41.8172H42.4503V44.5052H41.597Z" fill="#1A2E46"/>
<path d="M47.211 44.5479C46.9052 44.5479 46.6332 44.4839 46.395 44.3559C46.1603 44.2279 45.9736 44.0536 45.835 43.8332C45.6999 43.6092 45.6323 43.355 45.6323 43.0705C45.6323 42.7825 45.6999 42.5283 45.835 42.3079C45.9736 42.0839 46.1603 41.9096 46.395 41.7852C46.6332 41.6572 46.9052 41.5932 47.211 41.5932C47.5132 41.5932 47.7834 41.6572 48.0216 41.7852C48.2599 41.9096 48.4465 42.0821 48.5816 42.3025C48.7167 42.523 48.7843 42.779 48.7843 43.0705C48.7843 43.355 48.7167 43.6092 48.5816 43.8332C48.4465 44.0536 48.2599 44.2279 48.0216 44.3559C47.7834 44.4839 47.5132 44.5479 47.211 44.5479ZM47.211 43.8652C47.3496 43.8652 47.4741 43.8332 47.5843 43.7692C47.6945 43.7052 47.7816 43.6145 47.8456 43.4972C47.9096 43.3763 47.9416 43.2341 47.9416 43.0705C47.9416 42.9034 47.9096 42.7612 47.8456 42.6439C47.7816 42.5265 47.6945 42.4359 47.5843 42.3719C47.4741 42.3079 47.3496 42.2759 47.211 42.2759C47.0723 42.2759 46.9479 42.3079 46.8376 42.3719C46.7274 42.4359 46.6385 42.5265 46.571 42.6439C46.507 42.7612 46.475 42.9034 46.475 43.0705C46.475 43.2341 46.507 43.3763 46.571 43.4972C46.6385 43.6145 46.7274 43.7052 46.8376 43.7692C46.9479 43.8332 47.0723 43.8652 47.211 43.8652Z" fill="#1A2E46"/>
<path d="M49.9183 44.5052L48.8836 41.6359H49.6676L50.5263 44.1052H50.153L51.049 41.6359H51.753L52.6223 44.1052H52.249L53.1343 41.6359H53.8703L52.8303 44.5052H52.025L51.2623 42.3879H51.5076L50.7183 44.5052H49.9183Z" fill="#1A2E46"/>
<path d="M48.8553 36.7585C50.1179 36.7585 51.3815 36.7574 52.644 36.7585C53.0769 36.7585 53.3025 36.9319 53.2993 37.2481C53.296 37.561 53.0627 37.7431 52.6375 37.7431C50.1244 37.7452 47.6124 37.7452 45.0993 37.7431C44.6501 37.7431 44.4037 37.4977 44.4822 37.1423C44.5498 36.8327 44.7766 36.7553 45.0644 36.7564C46.327 36.7607 47.5906 36.7585 48.8531 36.7585H48.8553Z" fill="#1A2E46"/>
</svg>
