<svg width="80" height="80" viewBox="0 0 80 80" fill="none" xmlns="http://www.w3.org/2000/svg">
<rect width="80" height="80" rx="4" fill="#FFE5E6"/>
<g clip-path="url(#clip0_1_86750)">
<path d="M37.684 32.9879C36.0376 33.0837 34.4688 33.176 32.9001 33.2638C31.9609 33.3168 31.0217 33.3832 30.0813 33.4069C29.1106 33.4316 28.3583 33.006 27.9213 32.1366C27.3797 31.0588 26.8819 29.9597 26.3796 28.864C26.1736 28.4146 26.3312 28.0959 26.7974 27.954C27.9101 27.6139 28.9146 27.7862 29.632 28.7457C30.0464 29.2998 30.4721 29.391 31.1275 29.2874C33.0814 28.9766 35.0488 28.7502 37.0106 28.4901C37.0511 28.4844 37.0894 28.4675 37.1705 28.4428C37.1085 28.2964 37.0545 28.1567 36.9903 28.0216C36.6085 27.2096 36.2211 26.3999 35.8427 25.5857C35.5961 25.0553 35.72 24.767 36.2617 24.5857C36.7932 24.4077 37.3304 24.2433 37.8597 24.0586C38.2189 23.9336 38.4993 24.0091 38.773 24.2794C39.8395 25.338 40.933 26.3706 41.9893 27.4394C42.263 27.7153 42.5254 27.7727 42.8846 27.7175C43.745 27.5858 44.6076 27.4641 45.4725 27.3785C46.5446 27.2738 47.5244 27.5711 48.3149 28.2941C48.753 28.695 49.2249 28.9676 49.7711 29.1624C50.4073 29.3899 50.7914 29.8527 50.8612 30.5307C50.9558 31.4519 50.3319 32.2345 49.4006 32.3032C47.6077 32.4339 45.8126 32.5341 44.0175 32.6231C42.7269 32.6873 42.7258 32.6704 42.1199 33.7931C41.5332 34.8799 40.9364 35.961 40.3654 37.0545C40.1785 37.4137 39.9273 37.5658 39.5275 37.5489C38.9521 37.5252 38.3755 37.5387 37.8 37.5241C37.3214 37.5117 37.0939 37.229 37.1603 36.7504C37.3315 35.5162 37.505 34.2819 37.6863 32.9891L37.684 32.9879ZM43.3936 31.4496C43.5941 31.4496 43.7191 31.4552 43.8418 31.4496C45.0761 31.3832 46.3104 31.3167 47.5446 31.2458C48.1201 31.2131 48.6967 31.194 49.2665 31.1196C49.4174 31.1005 49.6472 30.9045 49.6562 30.7773C49.6675 30.6163 49.5154 30.4169 49.3825 30.284C49.2823 30.1838 49.1066 30.1545 48.9602 30.1084C48.4726 29.9541 48.0582 29.7198 47.6967 29.3268C47.1223 28.7029 46.3599 28.4529 45.5153 28.5588C43.4263 28.8212 41.3384 29.1004 39.2516 29.3786C36.2324 29.7806 33.2143 30.1951 30.1917 30.5757C29.9586 30.605 29.6489 30.462 29.4597 30.3009C29.1534 30.0397 28.927 29.6872 28.6477 29.391C28.4202 29.15 28.1612 28.9462 27.7569 29.0261C28.1319 29.8313 28.4912 30.6061 28.8561 31.3798C29.1748 32.0566 29.5059 32.2593 30.248 32.2199C32.0296 32.1264 33.8112 32.0296 35.5927 31.9294C36.345 31.8866 37.0973 31.8336 37.8541 31.7841C37.898 31.4721 37.9351 31.2097 37.9712 30.9473C38.0399 30.4361 38.1761 30.2897 38.6784 30.2198C38.9419 30.1827 39.2088 30.1635 39.4746 30.1365C40.7179 30.0093 41.96 29.8674 43.2044 29.7615C43.7822 29.7119 44.0502 30.1489 43.8013 30.6748C43.6887 30.9124 43.5569 31.1422 43.3936 31.4496ZM42.2585 31.0374C41.3756 31.1264 40.5805 31.2075 39.7854 31.2874C39.3455 31.3317 39.0887 31.5769 39.0151 32.0228C38.9836 32.2165 38.9611 32.4113 38.9329 32.6062C38.7606 33.8382 38.5883 35.0691 38.4171 36.3C39.032 36.4013 39.4716 36.2076 39.7359 35.7189C40.4228 34.4486 41.1098 33.1771 41.7967 31.9068C41.942 31.6377 42.0839 31.3663 42.2573 31.0374H42.2585ZM40.6177 28.0047C39.8271 27.1499 38.9949 26.2445 38.1536 25.3481C38.1029 25.294 37.9689 25.2771 37.889 25.2985C37.6367 25.3661 37.3923 25.4607 37.1299 25.5497C37.5376 26.4146 37.9205 27.24 38.3214 28.0565C38.3687 28.1522 38.5253 28.2648 38.6187 28.2558C39.3372 28.1815 40.0534 28.079 40.6165 28.0047H40.6177Z" fill="#EC1E24"/>
<path d="M20.0001 50.6757C19.9888 48.2387 21.7163 46.5585 23.7513 46.6553C25.8741 46.7556 27.4789 48.6013 27.1996 50.7028C26.909 52.8898 25.6849 54.5272 23.9664 55.8245C23.8177 55.9371 23.454 55.9608 23.3132 55.8583C21.4359 54.4731 20.2197 52.6814 20.0001 50.6757ZM23.6116 54.6432C24.7671 53.6218 25.6376 52.4652 25.9631 50.9854C26.0622 50.5372 26.0498 50.0214 25.9327 49.5777C25.5959 48.3018 24.2783 47.5901 22.9911 47.9144C21.7163 48.2353 20.937 49.5372 21.2332 50.901C21.562 52.4168 22.4416 53.5936 23.6116 54.6432Z" fill="#EC1E24"/>
<path d="M60 50.3061C60.0034 51.1699 59.7422 51.9661 59.3604 52.7251C58.7658 53.9087 57.9527 54.9155 56.9031 55.732C56.5517 56.0056 56.2353 56.0259 55.8817 55.7376C54.2634 54.4166 53.0742 52.8242 52.796 50.6992C52.5246 48.6169 54.0967 46.7858 56.2071 46.6574C58.2545 46.5324 60.0102 48.2228 59.9989 50.3073L60 50.3061ZM56.3558 54.6205C57.3851 53.8918 58.4437 52.3163 58.7173 51.0956C58.7838 50.7983 58.8198 50.4852 58.8131 50.1811C58.7849 48.8298 57.5968 47.7475 56.2578 47.8354C54.876 47.9254 53.8039 49.1304 53.9526 50.4784C54.1429 52.2105 55.1238 53.4932 56.3558 54.6216V54.6205Z" fill="#EC1E24"/>
<path d="M26.3279 45.3296C26.2063 45.226 25.9619 45.1157 25.9101 44.9467C25.8515 44.7575 25.8898 44.4129 26.0205 44.3127C26.7108 43.789 27.4338 43.3048 28.1681 42.8419C28.4451 42.6674 28.7232 42.798 28.8888 43.0694C29.0442 43.3239 29.0296 43.6156 28.7852 43.7913C28.0915 44.2902 27.3764 44.7598 26.6658 45.2339C26.6004 45.2778 26.507 45.2801 26.3268 45.3296H26.3279Z" fill="#EC1E24"/>
<path d="M44.4646 39.9995C45.1718 40.1819 46.0029 40.3756 46.8205 40.6166C47.1505 40.7135 47.2518 41.0198 47.1482 41.3374C47.0503 41.6381 46.8014 41.7946 46.4883 41.7248C45.7101 41.5514 44.9365 41.3588 44.165 41.1572C43.8362 41.0716 43.6729 40.8261 43.7337 40.4894C43.7912 40.1741 44.0175 40.022 44.4635 39.9995H44.4646Z" fill="#EC1E24"/>
<path d="M30.3967 42.9335C30.23 42.7725 29.9642 42.6339 29.9237 42.4459C29.882 42.251 29.9969 41.8805 30.1478 41.8096C30.9293 41.4413 31.7368 41.1193 32.5566 40.8467C32.7165 40.7938 33.069 40.9762 33.1569 41.1429C33.2436 41.3073 33.1783 41.7375 33.0566 41.7949C32.2176 42.1992 31.346 42.5371 30.3967 42.9324V42.9335Z" fill="#EC1E24"/>
<path d="M51.5493 42.8678C51.5369 43.4128 51.1135 43.6808 50.6945 43.4905C49.9794 43.1662 49.2745 42.8205 48.574 42.4691C48.2643 42.3137 48.1472 41.9612 48.3026 41.683C48.467 41.388 48.735 41.263 49.0503 41.4071C49.7891 41.745 50.5245 42.093 51.243 42.4713C51.4018 42.5547 51.4862 42.781 51.5493 42.8666V42.8678Z" fill="#EC1E24"/>
<path d="M40.7754 40.8027C40.4116 40.8027 40.0468 40.8106 39.6841 40.8005C39.272 40.7892 39.0107 40.5448 39.0175 40.1991C39.0231 39.8703 39.272 39.627 39.6616 39.6304C40.4026 39.636 41.1448 39.6507 41.8847 39.6946C42.3554 39.7228 42.5705 39.9615 42.5412 40.3343C42.5131 40.7025 42.2383 40.8906 41.7822 40.8613C41.4477 40.8399 41.1121 40.823 40.7765 40.8027H40.7754Z" fill="#EC1E24"/>
<path d="M34.9182 41.3429C34.6513 41.3496 34.425 41.2021 34.3619 40.8857C34.2943 40.5512 34.4374 40.2775 34.7741 40.2111C35.5973 40.0489 36.425 39.9104 37.2561 39.7978C37.576 39.7539 37.7888 39.9633 37.8327 40.2843C37.8767 40.603 37.7336 40.8564 37.4149 40.9172C36.6052 41.0737 35.7888 41.1965 34.9182 41.3418V41.3429Z" fill="#EC1E24"/>
<path d="M53.7014 45.2544C53.305 45.2544 52.4548 44.6879 52.4199 44.4244C52.394 44.2262 52.43 43.9356 52.5584 43.8219C52.7003 43.6958 53.0178 43.6338 53.1901 43.7059C53.4908 43.8309 53.778 44.0482 53.9953 44.2926C54.1125 44.4255 54.1474 44.7239 54.0832 44.8974C54.0201 45.0697 53.7859 45.1812 53.7014 45.2544Z" fill="#EC1E24"/>
<path d="M22.0237 50.2542C22.0305 49.3646 22.7546 48.6562 23.642 48.6686C24.499 48.681 25.2198 49.4119 25.2175 50.2666C25.2153 51.1518 24.4923 51.8703 23.6082 51.868C22.7152 51.8658 22.017 51.154 22.0237 50.2554V50.2542ZM24.0902 50.3612C24.0914 50.3015 24.0925 50.2419 24.0947 50.1822C23.9303 50.0718 23.7614 49.8714 23.6015 49.8781C23.4652 49.8837 23.2603 50.1101 23.2253 50.2689C23.1702 50.5234 23.3695 50.7137 23.6274 50.6698C23.7941 50.6416 23.9371 50.4693 24.0902 50.3624V50.3612Z" fill="#EC1E24"/>
<path d="M57.9763 50.258C57.9786 51.1589 57.2815 51.865 56.3873 51.8673C55.5044 51.8695 54.7758 51.142 54.7825 50.2636C54.7881 49.3852 55.5235 48.6622 56.4042 48.669C57.2691 48.6757 57.9741 49.3875 57.9763 50.258ZM56.8558 50.3548C56.8558 50.2918 56.8569 50.2287 56.858 50.1645C56.6925 50.0609 56.5179 49.8638 56.3636 49.8796C56.2195 49.8943 56.0123 50.1195 55.9875 50.276C55.9481 50.5193 56.144 50.7209 56.4053 50.6702C56.5697 50.6386 56.706 50.4652 56.8558 50.3548Z" fill="#EC1E24"/>
</g>
<defs>
<clipPath id="clip0_1_86750">
<rect width="40" height="40" fill="white" transform="translate(20 20)"/>
</clipPath>
</defs>
</svg>
