<svg width="80" height="80" viewBox="0 0 80 80" fill="none" xmlns="http://www.w3.org/2000/svg">
<rect width="80" height="80" rx="4" transform="matrix(-1 0 0 1 80 0)" fill="#EAFAEE"/>
<g clip-path="url(#clip0_1_86731)">
<path d="M30.1513 26.8061C30.2669 26.4591 30.347 26.2011 30.436 25.9431C31.2812 23.71 29.8577 20.7207 26.9751 20.1068C24.0836 19.484 21.3167 21.7171 21.379 24.6531C21.3968 25.3737 21.6726 26.1121 21.9306 26.8061C22.2331 27.6068 22.6424 28.363 23.0249 29.1726C22.2865 29.4217 21.557 29.6619 20.8274 29.9111C20.0979 30.1513 20.0178 30.2491 20.0178 31.0054C20.0178 39.226 20.0178 47.4466 20.0178 55.6584C20.0178 56.5748 20.347 56.8061 21.21 56.5214C24.8933 55.2936 28.5676 54.0659 32.2509 52.8292C32.5089 52.7402 32.7135 52.7669 32.9537 52.9004C35.089 54.0748 37.242 55.2224 39.3772 56.4146C39.8755 56.6904 40.2491 56.6637 40.7029 56.3434C42.3933 55.178 44.1103 54.0481 45.8274 52.9271C45.9876 52.8203 46.2456 52.7847 46.4235 52.8292C47.0552 52.9893 47.6779 53.1851 48.2918 53.3897C48.4342 53.4431 48.5943 53.5765 48.6655 53.7189C49.5997 55.7918 50.7829 57.7047 52.0552 59.5819C52.4199 60.1246 52.936 60.1335 53.2918 59.5819C54.057 58.3897 54.8043 57.1886 55.5249 55.9787C55.7029 55.6762 55.8541 55.6228 56.1744 55.7296C57.1086 56.0321 58.0516 56.299 59.0036 56.5837C59.6441 56.7705 60.0089 56.5036 60.0089 55.8363C60 47.4911 60 39.1459 60 30.8007C60 30.3648 59.8221 30.1068 59.395 29.9822C55.0534 28.6833 50.7118 27.3844 46.379 26.0676C46.0231 25.9609 45.7473 26.0321 45.4449 26.2367C43.7456 27.3844 42.0285 28.5143 40.3292 29.6619C40.0801 29.831 39.9021 29.8488 39.6263 29.6975C37.5 28.5232 35.3648 27.3755 33.2473 26.2011C32.9004 26.0143 32.589 25.9787 32.2242 26.1121C31.5747 26.3523 30.9164 26.557 30.1691 26.8061H30.1513ZM46.6904 27.5712C46.8061 27.6068 46.8772 27.6246 46.9395 27.6424C50.7207 28.7723 54.5018 29.9111 58.2829 31.041C58.5943 31.1299 58.6833 31.2634 58.6744 31.5837C58.6655 35.0534 58.6744 38.5232 58.6744 41.9929V42.4466C54.653 41.2367 50.6762 40.0445 46.6993 38.8523V27.5801L46.6904 27.5712ZM40.7118 44.1637C40.5605 43.7634 40.7829 43.6032 41.0498 43.4253C42.3577 42.5623 43.6566 41.6904 44.9644 40.8185C45.0712 40.7474 45.1868 40.6851 45.3203 40.5961C45.3292 40.7029 45.3381 40.7474 45.3381 40.7829C45.3381 44.3061 45.3381 47.8292 45.3292 51.3612C45.3292 51.5036 45.2135 51.6993 45.089 51.7794C43.7367 52.6958 42.3755 53.6032 41.0142 54.5107C40.9164 54.573 40.8185 54.6264 40.6584 54.7153V52.4911H39.3328V54.8488C39.137 54.7509 39.0036 54.6797 38.8701 54.6086C37.1441 53.6655 35.4182 52.7135 33.6833 51.7883C33.4253 51.6548 33.3363 51.5036 33.3363 51.21C33.3452 47.7669 33.3363 44.3239 33.3363 40.8808V40.4716C33.4965 40.5516 33.6032 40.5961 33.71 40.6584C35.436 41.6014 37.1619 42.5445 38.8968 43.4787C39.1815 43.6299 39.4128 43.7723 39.3417 44.1548H40.7029L40.7118 44.1637ZM45.3114 27.936C45.3292 28.0338 45.3381 28.0605 45.3381 28.0961C45.3381 31.637 45.3381 35.178 45.3381 38.71C45.3381 38.8523 45.2224 39.0481 45.0979 39.1281C43.7189 40.0623 42.3399 40.9876 40.952 41.9039C40.8808 41.9484 40.7918 41.9751 40.7029 42.0196C40.6851 41.8061 40.6762 41.6281 40.6673 41.4502H39.3505V42.1797C39.1904 42.0997 39.0658 42.0552 38.9502 41.984C37.1975 41.0321 35.4537 40.0623 33.6922 39.1192C33.4342 38.9769 33.3541 38.8168 33.3541 38.541C33.363 35.0979 33.3541 31.6548 33.3541 28.2118C33.3541 28.0961 33.3541 27.9805 33.3541 27.8025C33.5498 27.9004 33.6833 27.9627 33.8078 28.0338C35.7029 29.0659 37.6068 30.0979 39.5018 31.1477C39.8932 31.3612 40.2135 31.3523 40.5783 31.0854C41.2456 30.6139 41.9395 30.1691 42.6157 29.7153C43.5054 29.1281 44.3861 28.541 45.3114 27.9271V27.936ZM21.3612 55.0623V54.6175C21.3612 51.1655 21.3612 47.7047 21.3523 44.2527C21.3523 43.8879 21.4769 43.7634 21.7972 43.6566C25.0801 42.5712 28.363 41.4769 31.6459 40.3826C31.7527 40.347 31.8772 40.3292 31.984 40.3025C32.0018 40.3648 32.0107 40.3915 32.0107 40.4182C32.0107 44.0214 32.0107 47.6335 32.0196 51.2367C32.0196 51.5392 31.8505 51.5748 31.6548 51.637C29.4484 52.3666 27.242 53.105 25.0356 53.8345C23.8256 54.2349 22.6246 54.6441 21.3612 55.0623ZM21.4057 42.3844C21.379 42.3132 21.3701 42.2954 21.3701 42.2865C21.3701 38.6655 21.3701 35.0445 21.3612 31.4146C21.3612 31.1833 21.4591 31.1032 21.6548 31.041C22.2509 30.8541 22.847 30.6673 23.4253 30.4538C23.6922 30.347 23.8167 30.436 23.9502 30.6584C24.4128 31.4057 24.8844 32.1353 25.3648 32.8648C25.7829 33.4965 26.2901 33.5054 26.6904 32.8648C27.5267 31.5303 28.3452 30.1691 29.1726 28.8256C29.2527 28.7011 29.3239 28.5143 29.4395 28.4787C30.2847 28.1762 31.1299 27.9004 31.9929 27.6157C32.0107 27.7047 32.0196 27.7491 32.0196 27.7847C32.0196 31.379 32.0196 34.9733 32.0285 38.5676C32.0285 38.8612 31.8683 38.9057 31.6637 38.9769C29.4573 39.7064 27.242 40.4449 25.0356 41.1744C23.8256 41.5748 22.6246 41.984 21.3968 42.3844H21.4057ZM46.6726 40.2224C50.7029 41.4324 54.6708 42.6246 58.6477 43.8168V55.0801C57.8737 54.8488 57.1352 54.6264 56.3345 54.3772C57.5801 52.0997 57.8737 49.9022 55.8808 47.9627C54.4573 46.5748 52.7046 46.2456 50.8808 47.0285C48.7989 47.9182 47.9182 49.6175 48.016 51.8861C47.6779 51.7883 47.3488 51.6548 47.0196 51.5925C46.7171 51.5303 46.6637 51.379 46.6637 51.1032C46.6726 48.3007 46.6637 45.4982 46.6637 42.6958V40.2135L46.6726 40.2224ZM26.0498 31.5303C24.8221 29.5641 23.6477 27.7402 22.9271 25.694C22.7669 25.2402 22.6779 24.7064 22.7313 24.2349C22.9182 22.7047 24.0214 21.6281 25.5516 21.3701C27.8648 20.9876 29.8755 23.2474 29.1815 25.4805C28.968 26.1744 28.6655 26.8595 28.3274 27.5C27.6157 28.8256 26.8505 30.1246 26.0498 31.5303ZM52.6691 58.1317C51.4858 56.2367 50.3381 54.4217 49.5908 52.3933C49.4662 52.0463 49.3505 51.6637 49.3594 51.3079C49.3861 49.92 50.0267 48.8879 51.29 48.3096C52.5712 47.7224 53.8078 47.9004 54.8577 48.8345C55.8897 49.742 56.2812 50.9164 55.8185 52.2509C55.089 54.3417 53.8968 56.2011 52.6779 58.1406L52.6691 58.1317Z" fill="#2E8942"/>
<path d="M46.6548 59.9555V58.6743H44.0391V59.9555H46.6548Z" fill="#2E8942"/>
<path d="M40.6762 58.6565V58.0071H39.3506C39.3506 58.4697 39.3328 58.9234 39.3506 59.3683C39.3684 59.7153 39.5997 59.9377 39.9378 59.9644C40.3915 60 40.8452 59.9644 41.3168 59.9644V58.6476H40.6762V58.6565Z" fill="#2E8942"/>
<path d="M49.3773 59.9732H50.6406V58.6743H49.3773V59.9732Z" fill="#2E8942"/>
<path d="M40.6583 46.9573H39.3683V49.6797H40.6583V46.9573Z" fill="#2E8942"/>
<path d="M39.3327 38.6476H40.6672C40.6672 38.1761 40.6939 37.7045 40.6672 37.2419C40.6405 36.9038 40.4003 36.6903 40.0622 36.6725C39.6263 36.6458 39.1814 36.6725 38.7188 36.6725V37.9981H39.3505V38.6476H39.3327Z" fill="#2E8942"/>
<path d="M34.1815 36.6814V37.9625H36.3969V36.6814H34.1815Z" fill="#2E8942"/>
<path d="M27.3309 36.6727H26.7082V34.6887H25.3647C25.3647 35.5962 25.3469 36.5126 25.3736 37.4111C25.3825 37.7492 25.6405 37.9627 25.9875 37.9805C26.4235 37.9983 26.8683 37.9805 27.3309 37.9805V36.6638V36.6727Z" fill="#2E8942"/>
<path d="M31.8594 36.6638C31.1921 36.6638 30.5693 36.6638 29.9466 36.6638C29.8487 36.6638 29.7597 36.6727 29.6352 36.6816V37.9628H31.8505V36.6638H31.8594Z" fill="#2E8942"/>
<path d="M26.0142 26.6637C27.1174 26.6637 28.0249 25.7562 28.0249 24.653C28.0249 23.5676 27.1263 22.6691 26.0409 22.6602C24.9377 22.6602 24.0302 23.5676 24.0302 24.6708C24.0302 25.7562 24.9288 26.6548 26.0142 26.6637ZM25.3559 24.6708C25.3559 24.315 25.6584 24.0036 26.0142 24.0036C26.3701 24.0036 26.6815 24.3061 26.6815 24.6619C26.6815 25.0178 26.379 25.3292 26.0231 25.3292C25.6673 25.3292 25.3559 25.0267 25.3559 24.6708Z" fill="#2E8942"/>
<path d="M52.6601 53.3184C53.7633 53.3184 54.6708 52.4109 54.6619 51.3077C54.6619 50.2223 53.7544 49.3237 52.669 49.3237C51.5658 49.3237 50.6584 50.2312 50.6673 51.3344C50.6673 52.4198 51.5747 53.3184 52.6601 53.3184ZM52.6868 51.9839C52.331 51.9839 52.0196 51.6903 52.0107 51.3344C52.0107 50.9785 52.2954 50.6671 52.6601 50.6583C53.016 50.6583 53.3274 50.9429 53.3363 51.3077C53.3363 51.6636 53.0516 51.975 52.6868 51.9839Z" fill="#2E8942"/>
</g>
<defs>
<clipPath id="clip0_1_86731">
<rect width="40" height="40" fill="white" transform="matrix(-1 0 0 1 60 20)"/>
</clipPath>
</defs>
</svg>
