<svg width="80" height="80" viewBox="0 0 80 80" fill="none" xmlns="http://www.w3.org/2000/svg">
<rect width="80" height="80" rx="4" fill="#FFE5E6"/>
<path d="M47.5693 29.3473C47.917 29.4171 48.282 29.4331 48.5988 29.5647C49.2521 29.8358 49.4522 30.4455 49.5758 31.0781C49.9373 32.9382 49.228 34.4952 47.4171 35.6506C47.6688 35.6506 47.8095 35.6506 47.9502 35.6506C50.2908 35.6506 52.6313 35.6494 54.9719 35.6506C56.4316 35.6506 57.2472 36.4662 57.2507 37.934C57.2553 39.7471 57.2564 41.5603 57.2507 43.3735C57.2461 44.8069 56.4224 45.6271 54.9891 45.6351C54.2077 45.6397 53.4252 45.6351 52.5753 45.6351C52.9436 46.0607 53.288 46.4096 53.5728 46.802C53.8645 47.2024 54.0979 47.6451 54.3827 48.1096C54.9353 47.9059 55.5061 47.6931 56.0781 47.4849C56.8697 47.1967 57.2495 47.4609 57.253 48.3075C57.2564 49.3199 57.253 50.3323 57.253 51.4122C57.6499 51.4122 58.0149 51.4202 58.3798 51.4099C58.8225 51.3985 59.0616 51.6192 59.1691 52.0356C59.5992 53.7013 59.5981 55.3646 59.1691 57.0302C59.0616 57.4478 58.8088 57.664 58.3775 57.6651C58.0229 57.6663 57.6694 57.6651 57.253 57.6651C57.253 58.165 57.2564 58.6306 57.253 59.0951C57.2461 59.7803 57.0322 59.9988 56.3595 59.9988C45.6268 59.9988 34.8952 59.9988 24.1625 59.9988C23.5048 59.9988 23.2874 59.7826 23.284 59.1328C23.2817 58.6638 23.284 58.1948 23.284 57.6651C22.9168 57.6651 22.5804 57.6663 22.2441 57.6651C21.6458 57.6617 21.4582 57.5118 21.3118 56.9444C20.8896 55.3211 20.8999 53.699 21.3198 52.078C21.4525 51.5643 21.6332 51.4179 22.1583 51.4122C22.5129 51.4088 22.8676 51.4122 23.2851 51.4122C23.2851 50.9168 23.2851 50.4513 23.2851 49.9857C23.2851 49.3862 23.2817 48.7868 23.2863 48.1862C23.292 47.4895 23.6935 47.2161 24.3616 47.4563C24.9507 47.668 25.5353 47.8899 26.065 48.0855C26.6587 47.2539 27.2307 46.4542 27.8175 45.6329C27.0408 45.6329 26.232 45.6283 25.4243 45.634C24.8272 45.6386 24.2998 45.4704 23.8674 45.0471C23.435 44.6239 23.2451 44.0999 23.2439 43.5039C23.2416 41.5912 23.2291 39.6774 23.2485 37.7646C23.2611 36.4708 24.1236 35.6506 25.4312 35.6483C27.9559 35.6437 30.4818 35.6472 33.0843 35.6472C32.9837 35.5636 32.9414 35.5133 32.8876 35.487C31.1945 34.6599 30.396 32.3102 31.1556 30.4055C31.4496 29.6665 32.0342 29.3519 32.8075 29.4011C32.6805 28.6484 32.5204 27.9151 32.4426 27.1738C32.3396 26.198 32.4643 25.2622 33.1827 24.4992C33.2456 24.4328 33.28 24.3242 33.296 24.2292C33.6437 22.2536 34.8998 21.0799 36.7267 20.5102C38.9792 19.8078 41.2774 19.8375 43.5105 20.5571C45.9448 21.3407 47.1586 23.2214 47.6059 25.6443C47.7191 26.2563 47.7214 26.8947 47.7146 27.5204C47.7077 28.1313 47.623 28.741 47.5739 29.345L47.5693 29.3473ZM34.7648 32.9726C34.7317 32.976 34.6985 32.9794 34.6665 32.9829C34.7763 34.0124 34.7568 35.0775 35.0234 36.0659C35.545 38.0014 36.9807 39.2289 38.6578 40.1864C39.0215 40.3935 39.4368 40.5422 39.8463 40.6291C40.7123 40.811 41.4708 40.4724 42.1846 40.0205C44.476 38.5677 45.9563 36.6573 45.763 33.7699C45.7103 32.9748 45.7744 32.1718 45.7446 31.3733C45.7332 31.0724 45.6691 30.7441 45.5273 30.4844C45.1532 29.7958 44.8421 29.114 44.9942 28.2983C45.0297 28.1084 44.969 27.9013 44.9656 27.7012C44.9462 26.1236 43.3755 25.1558 42.0885 25.5379C41.6389 25.6718 41.1802 25.7827 40.7455 25.9543C40.4012 26.0904 40.1037 26.079 39.7605 25.9475C39.2835 25.7656 38.7893 25.6146 38.2894 25.5127C37.0059 25.2508 35.8253 26.0493 35.6182 27.3397C35.5313 27.8842 35.5736 28.447 35.5359 29.0007C35.521 29.2215 35.5073 29.4766 35.3929 29.6516C34.8369 30.5016 34.6584 31.4236 34.7603 32.4177C34.7786 32.6008 34.7625 32.7884 34.7625 32.9737L34.7648 32.9726ZM55.8802 49.043C55.6697 49.1117 55.5347 49.1506 55.4032 49.1998C53.6815 49.8392 51.9633 50.4879 50.2347 51.1113C49.9339 51.22 49.8572 51.3744 49.8641 51.6719C49.8824 52.4418 49.887 53.2139 49.8595 53.9827C49.8515 54.2058 49.7771 54.502 49.6227 54.6244C49.4568 54.756 49.0976 54.8281 48.9352 54.7331C48.7315 54.6153 48.5371 54.3076 48.5211 54.0696C48.4696 53.2734 48.4879 52.4726 48.5062 51.673C48.5131 51.3836 48.4307 51.2486 48.1413 51.1617C46.3818 50.6366 44.6281 50.0886 42.8721 49.5498C42.2498 49.3588 41.6264 49.1746 40.9697 48.9767V58.6089H55.8825C55.8825 58.4362 55.863 58.2794 55.8859 58.1296C55.9443 57.7429 55.8001 57.569 55.4123 57.4409C54.5418 57.1538 53.9412 56.5337 53.6014 55.6803C52.9333 54.0021 53.797 52.1695 55.521 51.5609C55.656 51.5129 55.8585 51.379 55.863 51.2783C55.8928 50.5542 55.8791 49.8289 55.8791 49.0407L55.8802 49.043ZM30.6214 58.6112C30.6214 58.4384 30.6214 58.2851 30.6214 58.1319C30.6214 57.2899 30.618 56.4468 30.6225 55.6048C30.626 55.0431 30.8582 54.7503 31.2895 54.7423C31.7368 54.7343 31.9861 55.0409 31.9896 55.6208C31.9941 56.321 31.9907 57.0199 31.9907 57.72C31.9907 58.014 31.9907 58.3069 31.9907 58.6089H39.5386V48.9984C39.3933 49.0373 39.2835 49.0625 39.1771 49.0957C36.7107 49.8495 34.2489 50.6137 31.7756 51.3447C31.4748 51.4339 31.0893 51.4259 30.7941 51.3195C28.8906 50.6343 27.003 49.909 25.1086 49.1998C24.9702 49.1483 24.8272 49.1094 24.6796 49.0613V51.363C25.2104 51.6913 25.7229 51.911 26.1119 52.2656C27.845 53.8477 27.2272 56.6939 25.0091 57.4947C24.8741 57.5439 24.6899 57.6628 24.6682 57.7761C24.6178 58.0461 24.6522 58.3309 24.6522 58.6135H30.6202L30.6214 58.6112ZM51.2666 37.0222C49.7645 37.0222 48.2991 37.0176 46.8326 37.0336C46.7365 37.0336 46.6164 37.1789 46.5511 37.2842C46.2972 37.696 46.1416 38.2051 45.803 38.5197C45.0079 39.2575 44.8993 40.1372 44.953 41.1394C45.0125 42.2513 45.3385 42.7295 46.4516 43.0258C46.7216 42.6059 47.0911 42.3462 47.623 42.4549C48.2225 42.5773 48.8208 42.7112 49.4168 42.8519C50.0277 42.996 50.4727 43.3621 50.6866 43.9512C50.8044 44.2761 50.968 44.331 51.2654 44.2029V37.0222H51.2666ZM29.2681 37.0211V44.2235C29.5335 44.2898 29.7039 44.2944 29.8115 43.9855C30.0288 43.3609 30.4921 42.9811 31.1407 42.8381C31.683 42.718 32.2287 42.6105 32.7686 42.4778C33.2136 42.368 33.5785 42.4652 33.8966 42.7992C33.9663 42.8725 34.1174 42.9308 34.2112 42.9102C34.9982 42.734 35.5233 42.09 35.5404 41.2869C35.5519 40.7733 35.5553 40.2585 35.537 39.746C35.5324 39.6064 35.4569 39.4543 35.3769 39.3342C34.9147 38.6363 34.4457 37.9442 33.9675 37.2579C33.8977 37.1583 33.7707 37.0336 33.6689 37.0325C32.2161 37.0176 30.7632 37.0222 29.2692 37.0222L29.2681 37.0211ZM46.5157 49.2364C46.5157 49.0201 46.5191 48.8806 46.5157 48.7399C46.4837 47.4552 46.4516 46.1717 46.4162 44.887C46.4116 44.6994 46.4699 44.498 46.1954 44.4019C45.9586 44.3196 45.8362 44.4168 45.6806 44.561C44.1225 45.9978 42.283 46.7345 40.1621 46.7082C38.0743 46.683 36.2783 45.9166 34.75 44.4958C34.6424 44.3951 34.4182 44.3356 34.2844 44.3756C34.1871 44.4054 34.1002 44.6307 34.0945 44.7715C34.0487 46.0985 34.0213 47.4255 33.9904 48.7525C33.9869 48.8989 33.9904 49.0453 33.9904 49.2295C34.1826 49.178 34.3061 49.1506 34.4262 49.1128C35.7875 48.6941 37.1706 48.3338 38.5033 47.8373C39.6828 47.398 40.805 47.2882 41.9615 47.835C42.1652 47.9311 42.394 47.9768 42.6125 48.0432C43.8903 48.4344 45.1681 48.8245 46.5168 49.2364H46.5157ZM34.1723 28.6609C34.1723 28.3624 34.1665 28.0626 34.1723 27.7641C34.2317 25.1249 36.6204 23.6664 38.739 24.1903C39.1256 24.2864 39.5009 24.4305 39.891 24.5083C40.1255 24.5552 40.3863 24.5587 40.6197 24.5106C41.1207 24.4077 41.6058 24.2258 42.1091 24.1354C43.8331 23.8277 45.5696 24.8618 46.145 26.5149C46.1896 26.6418 46.2285 26.77 46.3006 26.9896C46.4642 24.5003 44.9187 22.2833 42.6788 21.7159C41.3793 21.3864 40.0465 21.3201 38.7275 21.502C37.9348 21.6107 37.1306 21.8257 36.3973 22.1438C35.3826 22.5842 34.758 23.4158 34.6321 24.5449C34.5898 24.9247 34.4514 25.1959 34.1837 25.4693C33.9915 25.666 33.8737 25.9841 33.8256 26.2655C33.6826 27.0834 33.8737 27.875 34.1711 28.6609H34.1723ZM43.6123 40.7001C41.3358 42.4755 39.1348 42.4595 36.8938 40.6875C37.0093 41.9207 36.6638 42.8633 35.847 43.608C38.0412 45.8777 42.4432 45.896 44.6155 43.6561C43.761 42.9102 43.5196 41.9287 43.6111 40.7001H43.6123ZM22.5598 52.793C22.3024 53.9735 22.2979 55.1118 22.5747 56.3255C23.2199 56.2912 23.8663 56.3221 24.4851 56.2066C25.3077 56.0521 25.8373 55.2285 25.7698 54.3785C25.7058 53.5651 25.0308 52.8524 24.2255 52.801C23.6866 52.7655 23.1444 52.7941 22.5598 52.7941V52.793ZM57.9325 52.7861C57.4291 52.7861 56.9475 52.7758 56.4659 52.7884C55.6159 52.8113 54.8987 53.4622 54.8026 54.2835C54.6951 55.201 55.2304 56.0544 56.1067 56.2134C56.6981 56.321 57.3147 56.2901 57.9188 56.321C58.1876 55.1141 58.1842 53.985 57.9313 52.7861H57.9325ZM49.2223 50.0612C49.2681 49.9822 49.3058 49.9479 49.307 49.9113C49.3596 48.1587 49.4202 46.4073 49.442 44.6548C49.4442 44.4923 49.2269 44.2418 49.0576 44.1812C48.6606 44.0405 48.2328 43.9913 47.7649 43.894C47.8164 45.7781 47.8656 47.6279 47.9228 49.4766C47.925 49.5555 47.9948 49.6791 48.0612 49.702C48.4456 49.8347 48.8379 49.9445 49.2223 50.06V50.0612ZM32.7206 43.8963C32.3259 43.981 31.9713 44.0782 31.6109 44.1297C31.1831 44.1903 31.0469 44.4168 31.0607 44.8332C31.1144 46.4439 31.1442 48.0546 31.1865 49.6665C31.1899 49.7878 31.2151 49.909 31.2357 50.0806C31.5892 49.9765 31.8958 49.8701 32.2092 49.8003C32.5055 49.734 32.6153 49.5944 32.6188 49.2764C32.6371 47.7217 32.684 46.1682 32.7194 44.6136C32.724 44.3882 32.7194 44.1629 32.7194 43.8975L32.7206 43.8963ZM25.5891 44.2349V37.052C24.8775 36.9845 24.6121 37.211 24.611 37.8973C24.6053 39.7346 24.6053 41.5718 24.611 43.4101C24.6133 44.0668 24.8764 44.2876 25.5891 44.2349ZM54.9067 44.2315C55.6034 44.2933 55.8768 44.0679 55.8791 43.4113C55.8859 41.5569 55.8871 39.7025 55.8791 37.8482C55.8756 37.2052 55.5736 36.9696 54.9078 37.0657V44.2315H54.9067ZM27.011 37.0371V44.2349H27.8335V37.0371H27.011ZM52.6748 37.0371V44.2372H53.4905V37.0371H52.6748ZM27.4686 48.6129C28.2316 48.9 28.9924 49.186 29.7291 49.464V46.1374C28.783 46.5824 27.9353 47.5158 27.4686 48.6129ZM53.0569 48.6083C52.5432 47.5318 51.842 46.7265 50.7541 46.1271V49.4651C51.5114 49.1837 52.2527 48.908 53.0569 48.6083ZM47.13 34.2332C47.337 34.0548 47.4629 33.9678 47.5624 33.8557C48.2476 33.0824 48.441 32.1821 48.1882 31.1925C48.1481 31.037 47.9399 30.7876 47.8587 30.8047C47.5624 30.8699 47.1506 30.8974 47.138 31.3218C47.1117 32.245 47.13 33.1693 47.13 34.2321V34.2332ZM33.3555 34.1406C33.3749 34.0834 33.3909 34.0582 33.3909 34.033C33.3932 33.2197 33.3944 32.4063 33.3944 31.5929C33.3944 31.0907 33.2617 30.9031 32.772 30.8105C32.6622 30.7899 32.4506 30.8814 32.4128 30.9729C31.945 32.1192 32.4323 33.6486 33.3543 34.1406H33.3555Z" fill="#EC1E24"/>
<path d="M54.8438 23.1367C57.5928 23.147 59.5089 25.6603 58.8775 28.4528C58.4302 30.4295 57.2828 31.9979 55.8608 33.3764C55.2694 33.9495 54.3039 33.945 53.7147 33.3627C52.2344 31.8995 51.0333 30.2568 50.6558 28.1382C50.1913 25.5322 52.2047 23.1276 54.8438 23.1367ZM51.9542 27.374C51.9771 27.5856 51.9851 27.8007 52.0251 28.0101C52.3534 29.7237 53.3727 31.0313 54.527 32.2587C54.7111 32.4555 54.9033 32.4361 55.0795 32.2439C55.3106 31.9911 55.5474 31.744 55.7647 31.4797C56.641 30.4101 57.3743 29.2661 57.5962 27.8625C57.8582 26.2072 56.7119 24.6594 55.1161 24.5232C53.3944 24.3768 51.9725 25.6638 51.9542 27.374Z" fill="#EC1E24"/>
<path d="M49.1662 55.6337C49.5346 55.6211 49.848 55.9208 49.8606 56.2972C49.8732 56.6793 49.5883 56.9859 49.2097 56.9973C48.8345 57.0087 48.521 56.7159 48.5084 56.3407C48.4959 55.9723 48.799 55.6463 49.1662 55.6337Z" fill="#EC1E24"/>
<path d="M31.2804 52.5472C31.6476 52.5357 31.9668 52.8378 31.9805 53.2107C31.9931 53.5848 31.6979 53.8994 31.3238 53.9108C30.9452 53.9211 30.6386 53.6317 30.6283 53.253C30.618 52.8744 30.9097 52.5598 31.2804 52.5472Z" fill="#EC1E24"/>
<path d="M54.7808 29.5978C53.5431 29.5944 52.5615 28.6083 52.5581 27.3625C52.5547 26.1018 53.5488 25.11 54.8117 25.1157C56.0484 25.1215 57.039 26.1156 57.039 27.3499C57.039 28.6094 56.0438 29.6001 54.782 29.5967L54.7808 29.5978ZM54.7957 26.4851C54.3061 26.4851 53.932 26.8557 53.9286 27.3442C53.9252 27.8567 54.3061 28.2331 54.8186 28.2239C55.3059 28.2148 55.672 27.8361 55.6663 27.3453C55.6606 26.8592 55.2819 26.4851 54.7957 26.4851Z" fill="#EC1E24"/>
</svg>
