<svg width="80" height="80" viewBox="0 0 80 80" fill="none" xmlns="http://www.w3.org/2000/svg">
<rect width="80" height="80" rx="4" fill="#EAFAEE"/>
<path d="M51.5364 42.9333C51.5892 43.6174 51.6539 44.2327 51.6797 44.849C51.7034 45.4179 51.4534 45.6592 50.8803 45.6646C50.2219 45.671 49.5625 45.6743 48.9042 45.6614C48.679 45.657 48.5616 45.7475 48.4161 45.9199C47.6124 46.8735 47.3312 47.9067 47.8203 49.0995C47.8904 49.2697 47.9044 49.4658 47.927 49.6522C48.011 50.3439 47.6501 50.9699 47.0112 51.2425C46.828 51.3201 46.6373 51.3815 46.4175 51.4623C46.7935 52.4018 47.1609 53.322 47.5294 54.2421C47.844 55.0265 48.1683 55.8087 48.4743 56.5963C48.8245 57.496 48.3299 58.1144 47.3861 57.9571C46.7644 57.8526 46.1427 57.7416 45.5275 57.6026C45.2959 57.5498 45.1623 57.5929 45.02 57.7804C44.6386 58.2836 44.2335 58.7695 43.8403 59.263C43.5914 59.5754 43.2918 59.7909 42.8716 59.7123C42.4557 59.6336 42.2424 59.3319 42.1163 58.9537C41.5938 57.3882 41.0658 55.8238 40.553 54.255C40.4603 53.9706 40.3289 53.7605 40.0132 53.7562C39.677 53.7519 39.5413 53.9727 39.4443 54.2701C38.9433 55.8012 38.4218 57.3247 37.9176 58.8546C37.7796 59.2737 37.5857 59.6336 37.1138 59.7144C36.6559 59.7931 36.3607 59.5226 36.0999 59.1886C35.7196 58.7005 35.3371 58.2146 34.9341 57.747C34.8533 57.6533 34.6637 57.5865 34.5398 57.6059C33.8772 57.7093 33.221 57.8558 32.5594 57.9657C31.6943 58.109 31.1825 57.4809 31.5057 56.6588C32.1446 55.0351 32.804 53.42 33.4548 51.8006C33.4947 51.7026 33.5259 51.6002 33.5755 51.4612C33.4182 51.4041 33.2727 51.3502 33.1273 51.2974C32.3515 51.0173 31.9528 50.3741 32.0897 49.5628C32.1899 48.9669 32.3472 48.3819 32.4431 47.7861C32.4743 47.5954 32.4409 47.3583 32.3504 47.1892C32.1166 46.7517 31.8494 46.3294 31.5617 45.9253C31.4723 45.7993 31.2773 45.6861 31.1254 45.6797C30.4951 45.6527 29.8626 45.6689 29.2302 45.6678C28.505 45.6667 28.2895 45.4545 28.324 44.7186C28.3499 44.1422 28.4167 43.5679 28.4706 42.9354C28.3111 42.9354 28.1559 42.9354 27.9997 42.9354C25.6337 42.9354 23.2687 42.9354 20.9026 42.9354C20.199 42.9354 19.9609 42.7167 20.0051 42.0185C20.2217 38.5933 21.9154 36.1713 25.0109 34.7156C25.1445 34.6531 25.2824 34.6003 25.4645 34.5238C23.9367 33.3451 23.1792 31.8324 23.3818 29.9092C23.5176 28.6195 24.1155 27.5614 25.1014 26.7296C27.1464 25.0046 30.1546 25.2675 31.9324 27.3222C33.5593 29.2024 33.6649 32.4939 31.0284 34.4883C31.6565 34.8395 32.2922 35.1994 32.9344 35.5463C32.9969 35.5797 33.1219 35.57 33.18 35.5291C34.251 34.7695 35.4136 34.1974 36.6871 33.8095C32.5357 31.5135 32.1629 25.984 35.1679 23.0028C37.9725 20.2197 42.487 20.3501 45.1159 23.3131C47.7923 26.3288 47.3495 31.4208 43.3511 33.7761C43.9846 34.0444 44.6332 34.2847 45.2495 34.5906C45.7646 34.846 46.2376 35.1854 46.7375 35.472C46.8345 35.5269 46.9982 35.57 47.0823 35.5259C47.7201 35.1897 48.3461 34.8298 48.9581 34.4872C46.2828 32.5144 46.3798 28.9772 48.317 27.0302C50.2219 25.1167 53.3325 25.1156 55.2396 27.027C57.1359 28.9276 57.3234 32.453 54.5468 34.5292C55.9011 35.0399 57.0583 35.82 57.9957 36.9125C59.2477 38.3714 59.9146 40.0651 59.9954 41.9862C60.0266 42.7189 59.8112 42.9333 59.086 42.9333C56.72 42.9333 54.355 42.9333 51.9889 42.9333H51.5353H51.5364ZM45.5167 27.7909C45.5049 24.7234 43.0268 22.2701 39.955 22.2852C36.9371 22.3003 34.4881 24.7698 34.4848 27.8006C34.4816 30.8595 36.9726 33.3473 40.025 33.3343C43.0602 33.3214 45.5275 30.8304 45.5157 27.7909H45.5167ZM36.3994 40.2795C36.3994 40.2569 36.3994 40.2332 36.3994 40.2106C36.0773 40.2106 35.7541 40.2235 35.433 40.2063C35.1582 40.1923 35.0106 40.2709 34.9783 40.5726C34.9201 41.1199 34.8199 41.663 34.7542 42.2092C34.6906 42.7436 34.4762 43.1778 34.0323 43.5032C33.5776 43.8362 33.1477 44.2047 32.6941 44.5397C32.4625 44.7111 32.4302 44.8748 32.5875 45.1162C32.9031 45.5999 33.1973 46.0977 33.5108 46.5826C33.7813 47.0017 33.8588 47.4424 33.7446 47.9294C33.6132 48.4918 33.513 49.0607 33.3826 49.6231C33.3169 49.9043 33.4074 50.0465 33.6811 50.1263C34.1961 50.2771 34.6992 50.4657 35.2143 50.6133C35.7648 50.7706 36.1592 51.0873 36.4091 51.6088C36.6354 52.0807 36.9123 52.5279 37.1375 52.9998C37.2819 53.3036 37.4467 53.3866 37.7667 53.2422C38.2914 53.0041 38.8345 52.8059 39.3678 52.5861C39.7869 52.4137 40.2028 52.4104 40.6219 52.5807C41.1682 52.8037 41.7198 53.0149 42.2607 53.2508C42.5365 53.3715 42.7014 53.3284 42.8393 53.0472C43.0925 52.529 43.3802 52.0269 43.6452 51.514C43.8661 51.0852 44.1969 50.8007 44.6623 50.6585C45.214 50.4904 45.7559 50.29 46.3097 50.1295C46.6093 50.0433 46.6847 49.8838 46.6179 49.594C46.4864 49.0316 46.3798 48.4649 46.2537 47.9014C46.1514 47.4456 46.2128 47.0232 46.4649 46.6278C46.7677 46.1516 47.0489 45.6614 47.3678 45.197C47.5671 44.9061 47.5607 44.71 47.2579 44.4956C46.8194 44.1853 46.4175 43.8254 45.9822 43.5108C45.5361 43.1886 45.3142 42.7587 45.2506 42.2232C45.1903 41.7168 45.0922 41.2137 45.0502 40.7062C45.0179 40.314 44.8606 40.1707 44.4619 40.2073C43.9006 40.2591 43.3349 40.2591 42.7704 40.2817C42.3318 40.2989 41.9547 40.1535 41.6304 39.8604C41.2016 39.4725 40.762 39.0965 40.3461 38.6957C40.1048 38.463 39.9194 38.4371 39.6673 38.6871C39.2654 39.0825 38.8291 39.4424 38.4143 39.8259C38.0706 40.1427 37.6762 40.3011 37.2064 40.2838C36.9382 40.2741 36.6688 40.2817 36.4005 40.2817L36.3994 40.2795ZM29.6805 44.376C29.8572 44.376 30.0038 44.3706 30.1492 44.376C30.7299 44.3997 31.3269 44.4816 31.6199 43.7769C31.6662 43.6659 31.8128 43.5948 31.9184 43.5119C32.2869 43.2209 32.6489 42.9182 33.0324 42.6467C33.3147 42.4473 33.4742 42.2222 33.499 41.8601C33.5335 41.3527 33.639 40.8506 33.708 40.3442C33.8297 39.4391 34.4407 38.9015 35.3532 38.9187C35.9167 38.9295 36.4813 38.9866 37.0438 38.9726C37.2603 38.9672 37.5092 38.8692 37.6805 38.7334C38.1115 38.3919 38.5026 38.0007 38.9153 37.6355C39.6091 37.0224 40.3924 37.0235 41.0917 37.6376C41.5054 38.0007 41.8955 38.3929 42.3264 38.7345C42.4978 38.8702 42.7466 38.9672 42.9632 38.9726C43.5396 38.9855 44.1172 38.9273 44.6947 38.9198C45.5545 38.909 46.1718 39.4553 46.2914 40.3108C46.3625 40.8161 46.4649 41.3193 46.4983 41.8267C46.5242 42.2178 46.7202 42.442 47.0025 42.6812C47.6016 43.1854 48.3634 43.5194 48.7286 44.279C48.7512 44.3264 48.8353 44.3695 48.8913 44.3706C49.3686 44.3781 49.847 44.3749 50.3243 44.3749C50.2306 39.744 46.1277 34.5831 39.9184 34.6327C33.7242 34.6811 29.7495 39.8809 29.6816 44.3781L29.6805 44.376ZM47.9679 36.4751C49.4602 37.9059 50.4988 39.5307 51.1097 41.4205C51.1959 41.6867 51.3716 41.6414 51.5515 41.6414C53.7947 41.6425 56.038 41.6425 58.2812 41.6414C58.3976 41.6414 58.515 41.6285 58.6874 41.6188C58.3523 39.117 57.1348 37.2465 54.9228 36.1174C52.5869 34.9247 50.2704 35.1229 47.9669 36.4751H47.9679ZM31.9884 36.5182C30.2257 35.2253 27.239 34.8298 24.7545 36.2779C22.8032 37.4146 21.1289 40.0705 21.4015 41.6425C23.7977 41.6425 26.1993 41.6447 28.6009 41.6339C28.6947 41.6339 28.8412 41.5175 28.8724 41.4238C29.5027 39.5415 30.5328 37.9135 31.9873 36.5193L31.9884 36.5182ZM51.7972 26.8816C49.8104 26.8751 48.2104 28.4611 48.1996 30.449C48.1899 32.4282 49.7899 34.0487 51.7638 34.0584C53.7322 34.0681 55.3549 32.4573 55.3667 30.4824C55.3796 28.5074 53.7732 26.888 51.7972 26.8816ZM31.7945 30.464C31.7891 28.474 30.188 26.8816 28.199 26.8869C26.2392 26.8923 24.6435 28.4902 24.6316 30.4587C24.6198 32.4271 26.2435 34.0595 28.2141 34.0616C30.1923 34.0627 31.7998 32.4476 31.7945 30.464ZM37.9865 54.5804C36.8789 54.6935 36.463 54.4684 35.962 53.5245C35.7174 53.0623 35.4815 52.5947 35.2186 52.1432C35.1539 52.0323 35.0031 51.9719 34.891 51.8879C34.8253 51.9805 34.7369 52.0646 34.696 52.168C34.1368 53.5471 33.5841 54.9284 33.0324 56.3097C33.0023 56.3862 32.9926 56.4713 32.9656 56.5823C33.6293 56.4562 34.2532 56.3647 34.8619 56.2127C35.2056 56.1265 35.4007 56.2149 35.6021 56.4896C35.9792 57.0025 36.3941 57.4884 36.8293 58.0304C37.2258 56.8484 37.5997 55.7322 37.9854 54.5826L37.9865 54.5804ZM43.1712 58.0282C43.6108 57.4809 44.032 56.995 44.407 56.4756C44.6128 56.1901 44.825 56.1352 45.1537 56.2106C45.7699 56.3528 46.3959 56.4519 47.0812 56.5801C46.4552 55.0275 45.8626 53.5493 45.2614 52.0743C45.1547 51.8135 44.9673 51.8146 44.8089 52.0894C44.5611 52.5182 44.3186 52.9524 44.1107 53.4017C43.7002 54.2873 43.0957 54.8078 42.0075 54.5546C42.4008 55.7268 42.7768 56.8495 43.1722 58.0261L43.1712 58.0282Z" fill="#2E8942"/>
<path d="M38.2938 43.978C38.5405 43.2194 38.7786 42.4674 39.0318 41.7197C39.2042 41.2111 39.5662 40.9644 40.0619 40.9924C40.5359 41.0193 40.8258 41.2865 40.9701 41.7218C41.177 42.3456 41.3763 42.9716 41.581 43.5955C41.622 43.7205 41.6694 43.8444 41.7168 43.9769C42.4861 43.9769 43.2381 43.9737 43.9891 43.9769C44.5569 43.9801 44.9211 44.2107 45.0666 44.6471C45.2196 45.106 45.0655 45.5273 44.6033 45.8689C44.0742 46.26 43.5474 46.6554 43.0022 47.0228C42.7921 47.165 42.7673 47.2986 42.8438 47.5184C43.0625 48.152 43.2694 48.7898 43.4709 49.4287C43.6282 49.9265 43.5054 50.35 43.1466 50.6204C42.7608 50.9102 42.3309 50.9027 41.8806 50.5805C41.3343 50.1905 40.788 49.7994 40.2569 49.3889C40.0608 49.237 39.9282 49.2477 39.7375 49.3943C39.2161 49.7951 38.6795 50.1765 38.1451 50.5601C37.671 50.9005 37.24 50.9145 36.8457 50.6172C36.4794 50.3403 36.3662 49.9125 36.5354 49.3856C36.7401 48.7467 36.948 48.11 37.1657 47.4753C37.2325 47.2814 37.1991 47.1629 37.0245 47.0411C36.4729 46.6586 35.932 46.2611 35.3911 45.8635C34.9332 45.5273 34.777 45.1017 34.9322 44.6417C35.0798 44.2053 35.4418 43.978 36.0118 43.9747C36.7627 43.9715 37.5148 43.9747 38.2916 43.9747L38.2938 43.978ZM36.9222 45.2731L36.8909 45.356C37.1819 45.5672 37.4728 45.7773 37.7626 45.9885C38.6806 46.6576 38.7334 46.8246 38.3778 47.9171C38.2668 48.2586 38.1559 48.6002 38.0255 49.001C38.1397 48.9525 38.1666 48.946 38.1871 48.931C38.5577 48.6638 38.9262 48.3933 39.2969 48.1272C39.813 47.7566 40.1761 47.7533 40.6975 48.1218C41.0994 48.4063 41.4948 48.6982 41.9926 49.0581C41.8138 48.5011 41.6705 48.0582 41.5282 47.6154C41.3063 46.9194 41.414 46.5918 42.0066 46.1598C42.3773 45.8893 42.7479 45.6189 43.1175 45.3485C42.6283 45.2731 42.1747 45.2741 41.7211 45.2731C40.9895 45.2709 40.7019 45.0619 40.4767 44.3755C40.3323 43.9359 40.1868 43.4964 40.0446 43.0643C39.9918 43.0718 39.9703 43.0708 39.9681 43.0761C39.813 43.533 39.661 43.9898 39.5059 44.4467C39.3076 45.0317 38.9898 45.2655 38.367 45.272C37.8854 45.2774 37.4038 45.272 36.9211 45.272L36.9222 45.2731Z" fill="#2E8942"/>
</svg>
